<svg xmlns="http://www.w3.org/2000/svg" width="100.02" height="100.02" viewBox="0 0 600 600">
  <defs>
    <style>
      .cls-1 {
        fill: #204b9b;
        fill-rule: evenodd;
      }
    </style>
  </defs>
  <path id="_2" data-name="2" class="cls-1" d="M155.484,114.509c61.92-10.08,95.76-11.52,142.559-11.52,56.88,0,91.44,5.76,92.88,54,2.16,47.52-27.36,97.2-90.72,165.6l-144,162.72c-7.2,7.92-9.36,16.56-9.36,27.36v39.6H473v-61.2H304.523c-25.919,0-55.439.72-80.639,2.88l142.559-159.12C432.683,261.389,455,216.749,455,154.109c0-90-57.6-107.28-152.64-107.28-44.639,0-83.519,2.88-151.2,18.72Z"/>
</svg>
