<svg xmlns="http://www.w3.org/2000/svg" width="100.02" height="100.02" viewBox="0 0 600 600">
  <defs>
    <style>
      .cls-1 {
        fill: #204b9b;
        fill-rule: evenodd;
      }
    </style>
  </defs>
  <path id="_3" data-name="3" class="cls-1" d="M173.364,108.029c33.12-2.88,79.2-5.76,126-5.76,76.319,0,100.079,10.8,101.519,73.44,0,46.08-7.92,90-87.12,90.72H221.6v49.679h92.159c82.08,0,98.64,37.44,98.64,91.44,0,72.72-30.96,97.2-110.879,97.2-46.08,0-88.56-2.88-137.52-7.2l-4.32,51.12c50.4,7.2,104.4,12.959,157.679,12.959,117.36,0,159.12-46.8,157.68-147.6-1.44-68.4-21.6-113.76-86.4-124.56v-2.88c56.88-11.52,72.72-61.2,72.72-125.279,0-87.84-44.64-115.2-153.36-115.2-46.079,0-90.719,4.32-139.679,12.96Z"/>
</svg>
