<svg width="42" height="68" viewBox="0 0 42 68" fill="none" xmlns="http://www.w3.org/2000/svg">
<path fill-rule="evenodd" clip-rule="evenodd" d="M0.430955 59.868V42.0875H0.390523V32.3745V31.8126H0.350091C0.309659 30.9296 0.350091 29.4847 0.390523 29.284V8.13207V8.01166C0.390523 7.57016 0.390523 7.24907 0.511819 6.72729L1.15873 5.20211L1.92694 3.67692C3.1399 2.27215 5.12106 0.666687 7.9513 0.666687H25.5796H25.7009C26.0221 0.693253 26.4495 0.684651 26.8894 0.675797C27.1141 0.671275 27.3421 0.666687 27.5608 0.666687H28.4503V0.706823H33.9895C38.1135 0.706823 41.5098 4.03815 41.5098 8.17221V59.868C41.5098 63.9619 38.154 67.3334 33.9895 67.3334H7.9513C3.82724 67.3334 0.430955 64.002 0.430955 59.868ZM39.4882 52.4026V12.4267H2.49298V52.4026H39.4882ZM15.0674 58.8644H26.8735V60.9114H15.0674V58.8644Z" fill="white"/>
<path d="M0.430955 42.0875H0.530955V41.9875H0.430955V42.0875ZM0.390523 42.0875H0.290523V42.1875H0.390523V42.0875ZM0.390523 31.8126H0.490523V31.7126H0.390523V31.8126ZM0.350091 31.8126L0.250196 31.8172L0.254565 31.9126H0.350091V31.8126ZM0.390523 29.284L0.488553 29.3037L0.490523 29.294V29.284H0.390523ZM0.511819 6.72729L0.419758 6.68824L0.416377 6.69622L0.414416 6.70465L0.511819 6.72729ZM1.15873 5.20211L1.06923 5.15703L1.06667 5.16306L1.15873 5.20211ZM1.92694 3.67692L1.85125 3.61157L1.84318 3.62091L1.83763 3.63194L1.92694 3.67692ZM25.7009 0.666687L25.7092 0.566687H25.7009V0.666687ZM26.8894 0.675797L26.8874 0.575818L26.8894 0.675797ZM28.4503 0.666687H28.5503V0.566687H28.4503V0.666687ZM28.4503 0.706823H28.3503V0.806823H28.4503V0.706823ZM39.4882 12.4267H39.5882V12.3267H39.4882V12.4267ZM39.4882 52.4026V52.5026H39.5882V52.4026H39.4882ZM2.49298 12.4267V12.3267H2.39298V12.4267H2.49298ZM2.49298 52.4026H2.39298V52.5026H2.49298V52.4026ZM26.8735 58.8644H26.9735V58.7644H26.8735V58.8644ZM15.0674 58.8644V58.7644H14.9674V58.8644H15.0674ZM26.8735 60.9114V61.0114H26.9735V60.9114H26.8735ZM15.0674 60.9114H14.9674V61.0114H15.0674V60.9114ZM0.330955 42.0875V59.868H0.530955V42.0875H0.330955ZM0.390523 42.1875H0.430955V41.9875H0.390523V42.1875ZM0.290523 32.3745V42.0875H0.490523V32.3745H0.290523ZM0.290523 31.8126V32.3745H0.490523V31.8126H0.290523ZM0.350091 31.9126H0.390523V31.7126H0.350091V31.9126ZM0.292493 29.2642C0.28059 29.3233 0.270305 29.4596 0.261586 29.6346C0.25268 29.8133 0.245072 30.0413 0.240004 30.2904C0.229875 30.7881 0.229836 31.3725 0.250196 31.8172L0.449986 31.808C0.429914 31.3696 0.429875 30.7901 0.439962 30.2944C0.445002 30.0468 0.452556 29.8208 0.461339 29.6445C0.470309 29.4645 0.48024 29.345 0.488553 29.3037L0.292493 29.2642ZM0.290523 8.13207V29.284H0.490523V8.13207H0.290523ZM0.290523 8.01166V8.13207H0.490523V8.01166H0.290523ZM0.414416 6.70465C0.290415 7.23806 0.290523 7.56862 0.290523 8.01166H0.490523C0.490523 7.57169 0.490631 7.26007 0.609221 6.74994L0.414416 6.70465ZM1.06667 5.16306L0.419758 6.68824L0.60388 6.76634L1.25079 5.24116L1.06667 5.16306ZM1.83763 3.63194L1.06942 5.15712L1.24804 5.24709L2.01625 3.72191L1.83763 3.63194ZM7.9513 0.566687C5.07968 0.566687 3.07331 2.19624 1.85125 3.61157L2.00263 3.74228C3.20648 2.34805 5.16245 0.766687 7.9513 0.766687V0.566687ZM25.5796 0.566687H7.9513V0.766687H25.5796V0.566687ZM25.7009 0.566687H25.5796V0.766687H25.7009V0.566687ZM26.8874 0.575818C26.4455 0.58471 26.024 0.593074 25.7092 0.567027L25.6927 0.766347C26.0201 0.793433 26.4534 0.784592 26.8914 0.775777L26.8874 0.575818ZM27.5608 0.566687C27.3409 0.566687 27.1119 0.571299 26.8874 0.575818L26.8914 0.775777C27.1163 0.771251 27.3433 0.766687 27.5608 0.766687V0.566687ZM28.4503 0.566687H27.5608V0.766687H28.4503V0.566687ZM28.5503 0.706823V0.666687H28.3503V0.706823H28.5503ZM33.9895 0.606823H28.4503V0.806823H33.9895V0.606823ZM41.6098 8.17221C41.6098 3.98188 38.1677 0.606823 33.9895 0.606823V0.806823C38.0593 0.806823 41.4098 4.09442 41.4098 8.17221H41.6098ZM41.6098 59.868V8.17221H41.4098V59.868H41.6098ZM33.9895 67.4333C38.2088 67.4333 41.6098 64.0175 41.6098 59.868H41.4098C41.4098 63.9063 38.0991 67.2334 33.9895 67.2334V67.4333ZM7.9513 67.4333H33.9895V67.2334H7.9513V67.4333ZM0.330955 59.868C0.330955 64.0583 3.77305 67.4333 7.9513 67.4333V67.2334C3.88142 67.2334 0.530955 63.9458 0.530955 59.868H0.330955ZM39.3882 12.4267V52.4026H39.5882V12.4267H39.3882ZM2.49298 12.5267H39.4882V12.3267H2.49298V12.5267ZM2.59298 52.4026V12.4267H2.39298V52.4026H2.59298ZM39.4882 52.3026H2.49298V52.5026H39.4882V52.3026ZM26.8735 58.7644H15.0674V58.9644H26.8735V58.7644ZM26.9735 60.9114V58.8644H26.7735V60.9114H26.9735ZM15.0674 61.0114H26.8735V60.8114H15.0674V61.0114ZM14.9674 58.8644V60.9114H15.1674V58.8644H14.9674Z" fill="white"/>
<path d="M2 10V54H40V10H2ZM37.2115 51.9945H4.78849V12.0456H37.2115V51.9945Z" fill="white" stroke="white" stroke-width="0.2"/>
<rect x="12.5556" y="21.7778" width="3.33333" height="3.33333" fill="#5E97DA"/>
<rect x="19.2222" y="21.7778" width="3.33333" height="3.33333" fill="#5E97DA"/>
<rect x="25.8889" y="21.7778" width="3.33334" height="3.33333" fill="#5E97DA"/>
<rect x="12.5556" y="28.4445" width="3.33333" height="3.33334" fill="#5E97DA"/>
<rect x="19.2222" y="28.4445" width="3.33333" height="3.33334" fill="#5E97DA"/>
<rect x="25.8889" y="28.4445" width="3.33334" height="3.33334" fill="#5E97DA"/>
<rect x="12.5556" y="35.1111" width="3.33333" height="3.33334" fill="#5E97DA"/>
<rect x="19.2222" y="35.1111" width="3.33333" height="3.33334" fill="#5E97DA"/>
<rect x="25.8889" y="35.1111" width="3.33334" height="3.33334" fill="#5E97DA"/>
</svg>
