<svg width="65" height="50" viewBox="0 0 65 50" fill="none" xmlns="http://www.w3.org/2000/svg">
<path d="M51.0272 25.9161C51.0272 25.3638 51.4749 24.9161 52.0272 24.9161H58.8619C59.4142 24.9161 59.8619 25.3638 59.8619 25.9161V42.6898C59.8619 43.2421 59.4142 43.6898 58.8619 43.6898H52.0272C51.4749 43.6898 51.0272 43.2421 51.0272 42.6898V25.9161Z" fill="#5E97DA" stroke="#3E4348" stroke-width="2"/>
<path d="M44.4012 34.7508C44.4012 34.1985 44.8489 33.7508 45.4012 33.7508H51.0272V43.6898H44.4012V34.7508Z" fill="#5E97DA" stroke="#3E4348" stroke-width="2"/>
<path d="M34 31C34.5523 31 35 31.4477 35 32V43C35 43.5523 34.5523 44 34 44L7 44C6.44772 44 6 43.5523 6 43L6 32C6 31.4477 6.44772 31 7 31L34 31Z" fill="#5E97DA" stroke="#3E4348" stroke-width="2"/>
<path d="M20 19C20.5523 19 21 19.4477 21 20L21 31L6 31L6 19L20 19Z" fill="#5E97DA" stroke="#3E4348" stroke-width="2"/>
<mask id="path-5-inside-1" fill="white">
<path fill-rule="evenodd" clip-rule="evenodd" d="M3.89027 0.620605C2.23342 0.620605 0.890274 1.96375 0.890274 3.62061V46.2115C0.890274 47.8683 2.23342 49.2115 3.89027 49.2115H61.9419C63.5987 49.2115 64.9419 47.8683 64.9419 46.2115V3.62061C64.9419 1.96375 63.5987 0.620605 61.9419 0.620605H3.89027ZM7.1911 6.14233C6.63882 6.14233 6.1911 6.59005 6.1911 7.14233V42.9107C6.1911 43.463 6.63882 43.9107 7.1911 43.9107H58.8619C59.4142 43.9107 59.8619 43.463 59.8619 42.9107V7.14233C59.8619 6.59005 59.4142 6.14233 58.8619 6.14233H7.1911Z"/>
</mask>
<path fill-rule="evenodd" clip-rule="evenodd" d="M3.89027 0.620605C2.23342 0.620605 0.890274 1.96375 0.890274 3.62061V46.2115C0.890274 47.8683 2.23342 49.2115 3.89027 49.2115H61.9419C63.5987 49.2115 64.9419 47.8683 64.9419 46.2115V3.62061C64.9419 1.96375 63.5987 0.620605 61.9419 0.620605H3.89027ZM7.1911 6.14233C6.63882 6.14233 6.1911 6.59005 6.1911 7.14233V42.9107C6.1911 43.463 6.63882 43.9107 7.1911 43.9107H58.8619C59.4142 43.9107 59.8619 43.463 59.8619 42.9107V7.14233C59.8619 6.59005 59.4142 6.14233 58.8619 6.14233H7.1911Z" fill="white"/>
<path d="M2.89027 3.62061C2.89027 3.06832 3.33799 2.62061 3.89027 2.62061V-1.37939C1.12885 -1.37939 -1.10973 0.859186 -1.10973 3.62061H2.89027ZM2.89027 46.2115V3.62061H-1.10973V46.2115H2.89027ZM3.89027 47.2115C3.33799 47.2115 2.89027 46.7638 2.89027 46.2115H-1.10973C-1.10973 48.9729 1.12885 51.2115 3.89027 51.2115V47.2115ZM61.9419 47.2115H3.89027V51.2115H61.9419V47.2115ZM62.9419 46.2115C62.9419 46.7638 62.4942 47.2115 61.9419 47.2115V51.2115C64.7033 51.2115 66.9419 48.9729 66.9419 46.2115H62.9419ZM62.9419 3.62061V46.2115H66.9419V3.62061H62.9419ZM61.9419 2.62061C62.4942 2.62061 62.9419 3.06832 62.9419 3.62061H66.9419C66.9419 0.859183 64.7033 -1.37939 61.9419 -1.37939V2.62061ZM3.89027 2.62061H61.9419V-1.37939H3.89027V2.62061ZM8.1911 7.14233C8.1911 7.69462 7.74339 8.14233 7.1911 8.14233V4.14233C5.53424 4.14233 4.1911 5.48548 4.1911 7.14233H8.1911ZM8.1911 42.9107V7.14233H4.1911V42.9107H8.1911ZM7.1911 41.9107C7.74338 41.9107 8.1911 42.3584 8.1911 42.9107H4.1911C4.1911 44.5675 5.53425 45.9107 7.1911 45.9107V41.9107ZM58.8619 41.9107H7.1911V45.9107H58.8619V41.9107ZM57.8619 42.9107C57.8619 42.3584 58.3096 41.9107 58.8619 41.9107V45.9107C60.5188 45.9107 61.8619 44.5675 61.8619 42.9107H57.8619ZM57.8619 7.14233V42.9107H61.8619V7.14233H57.8619ZM58.8619 8.14233C58.3096 8.14233 57.8619 7.69462 57.8619 7.14233H61.8619C61.8619 5.48548 60.5188 4.14233 58.8619 4.14233V8.14233ZM7.1911 8.14233H58.8619V4.14233H7.1911V8.14233Z" fill="white" mask="url(#path-5-inside-1)"/>
<path d="M47.1559 17.1857C47.1559 19.0731 45.6259 20.6031 43.7386 20.6031C41.8512 20.6031 40.3212 19.0731 40.3212 17.1857C40.3212 15.2984 41.8512 13.7684 43.7386 13.7684C45.6259 13.7684 47.1559 15.2984 47.1559 17.1857Z" fill="#5E97DA" stroke="#5E97DA" stroke-width="2"/>
</svg>
