<svg width="56" height="55" viewBox="0 0 56 55" fill="none" xmlns="http://www.w3.org/2000/svg">
<path d="M39.8402 34.2339C34.3769 34.2339 28.9951 34.2339 23.4774 34.2339C23.2871 26.8407 23.0969 19.5019 22.9066 12.0816C20.9224 12.0816 19.0741 12.0816 17.1986 12.0816C17.5792 19.4748 17.9597 26.7592 18.313 34.1795C17.552 34.1795 16.8996 34.1795 16.1114 34.1795C15.5134 26.8679 14.9426 19.5291 14.3718 12.2718C14.2631 12.1631 14.2087 12.0544 14.1272 12.0544C13.3933 11.9729 12.4148 12.1088 12.4692 10.9672C12.5235 9.77122 13.5292 10.0702 14.2359 10.0702C23.4774 10.0702 32.6917 10.0702 41.9331 10.0702C42.5855 10.0702 43.4281 9.90712 43.4824 10.9128C43.5368 11.9457 42.7486 12 41.9875 12C41.9059 12 41.7972 12.0272 41.5798 12.0816C41.009 19.3932 40.4382 26.732 39.8402 34.2339Z" fill="white"/>
<path d="M31.6316 1.80725C33.9964 0.747205 36.9591 2.13342 38.0735 4.82432C38.454 5.74847 39.4597 6.42798 40.0849 7.24341C40.5197 7.78702 40.8187 8.41218 41.3352 9.25478C32.2568 9.25478 23.6133 9.25478 14.5078 9.25478C16.0571 7.24341 17.4705 5.58538 18.6664 3.73709C19.3187 2.75858 19.8352 2.10624 21.167 2.24215C21.765 2.29651 22.4989 1.64417 23.0425 1.12774C24.5646 -0.285664 26.4945 -0.0138563 28.2069 0.0948667C29.3484 0.176409 30.4085 1.1821 31.6316 1.80725Z" fill="#5E97DA"/>
<path d="M27.8535 46.5196C26.9022 49.1561 26.0596 51.4393 25.2713 53.7225C24.9723 54.6194 24.4831 55 23.5046 55C16.4376 54.9728 9.37057 55 2.30357 54.9728C0.781447 54.9728 0.0475663 54.2661 0.0203856 52.744C-0.00679519 47.6612 -0.00679519 42.6055 0.0203856 37.5227C0.0203856 35.9734 0.781447 35.2667 2.43947 35.2396C5.34782 35.2124 8.22898 35.2396 11.1373 35.2396C24.9451 35.2396 38.753 35.2396 52.5608 35.2396C55.2245 35.2396 55.6866 35.7016 55.6866 38.4197C55.6866 43.0948 55.6866 47.7427 55.6866 52.4178C55.6866 54.3205 55.0343 54.9728 53.2131 54.9728C46.2277 54.9728 39.2694 54.9728 32.284 55C31.2239 55 30.7346 54.5923 30.4357 53.6409C29.6202 51.3577 28.7776 49.0746 27.8535 46.5196ZM2.43947 37.6315C2.43947 42.7414 2.43947 47.7155 2.43947 52.7983C9.20748 52.7983 15.8668 52.8255 22.5261 52.744C22.8794 52.744 23.3958 52.2004 23.5317 51.7926C24.5646 49.0474 25.4888 46.2749 26.576 43.5297C26.7934 42.9589 27.4458 42.524 27.8807 42.0347C28.3156 42.5512 28.9407 42.9861 29.1853 43.5841C30.2182 46.2206 31.1424 48.9115 32.0665 51.6024C32.3383 52.4178 32.6917 52.7983 33.6702 52.7983C39.8674 52.744 46.0918 52.7712 52.289 52.7712C52.6423 52.7712 52.9685 52.7168 53.349 52.6624C53.349 47.6068 53.349 42.6327 53.349 37.6043C36.3611 37.6315 19.4275 37.6315 2.43947 37.6315Z" fill="white"/>
<path d="M13.3933 22.5462C12.6594 21.9482 12.1702 21.5677 11.7081 21.16C10.4578 20.0456 10.1588 20.1271 9.7511 21.7852C8.7726 25.5905 7.76691 29.3958 6.86994 33.2011C6.6525 34.1524 6.24479 34.3427 5.40218 34.3155C4.0975 34.2611 2.79283 34.2883 1.18916 34.2883C3.39081 28.7434 5.53809 23.2801 7.73973 17.8711C8.25616 16.648 9.99573 16.349 10.784 17.3819C11.7897 18.6865 12.6051 20.1815 13.4749 21.5949C13.5564 21.7308 13.4477 22.0026 13.3933 22.5462Z" fill="white"/>
<path d="M41.9603 22.2743C42.7757 20.1814 43.727 18.469 45.1948 17.1371C46.0646 16.3489 47.5595 16.8925 48.0488 18.1156C49.4622 21.5404 50.8212 24.9652 52.1531 28.39C52.887 30.3198 53.5665 32.2496 54.3004 34.261C52.8054 34.261 51.4464 34.2067 50.1145 34.2882C49.3263 34.3154 49.0273 34.0436 48.837 33.2825C47.8857 29.3957 46.88 25.5088 45.8743 21.622C45.4938 20.1542 45.1948 20.0455 44.026 21.0512C43.5911 21.4317 43.1291 21.8122 42.667 22.1656C42.6126 22.2471 42.4496 22.2199 41.9603 22.2743Z" fill="white"/>
<path d="M5 40C11.6819 40 18.2723 40 25 40C24.8856 40.6009 24.8627 41.1573 24.7025 41.6469C23.6728 44.5402 22.5973 47.4335 21.4989 50.2822C21.3844 50.5938 20.9039 50.9722 20.5835 50.9722C15.5263 51.0167 10.4462 50.9944 5.38902 50.9944C5.2746 50.9944 5.18307 50.9499 5 50.9054C5 47.3222 5 43.7167 5 40Z" fill="#5E97DA"/>
<path d="M50 40.0221C50 43.6962 50 47.2817 50 50.9779C49.4994 50.9779 49.0859 50.9779 48.6506 50.9779C44.2761 50.9779 39.8797 50.9557 35.5052 51C34.7434 51 34.4387 50.7565 34.1993 50.0483C33.2635 47.2374 32.2406 44.4487 31.2829 41.6378C31.1088 41.1509 31.0871 40.5976 31 40C37.3986 40.0221 43.6667 40.0221 50 40.0221Z" fill="#5E97DA"/>
</svg>
