<svg width="112" height="34" viewBox="0 0 112 34" fill="none" xmlns="http://www.w3.org/2000/svg">
<path d="M18.7 5.42381C19.9952 3.88571 20.6429 1.94286 20.481 0C18.5381 0.161905 16.7571 1.13333 15.5429 2.59048C14.2476 4.04762 13.6 5.90952 13.681 7.85238C15.6238 8.01429 17.5667 6.88095 18.7 5.42381ZM22.9905 18.0524C22.9905 13.7619 26.4714 11.6571 26.6333 11.5762C25.1762 9.55238 22.9095 8.3381 20.481 8.25714C17.8095 7.93333 15.3 9.79524 14.0048 9.79524C12.6286 9.79524 10.6048 8.25714 8.3381 8.3381C5.50476 8.3381 2.91429 9.95714 1.37619 12.5476C-1.5381 17.7286 0.647619 25.5 3.56191 29.7095C4.85714 31.7333 6.6381 34 8.90476 34C11.0095 33.919 11.819 32.6238 14.4095 32.6238C17 32.6238 17.7286 34 20.0762 33.919C22.3429 33.919 23.8 31.8143 25.1762 29.7905C26.7952 27.3619 27.5238 25.0952 27.5238 24.9333C27.5238 24.9333 23.0714 23.2333 22.9905 18.0524Z" fill="#999999"/>
<path d="M38.1118 8.96C38.1118 8.36267 38.2145 7.77 38.4198 7.182C38.6345 6.58467 38.9425 6.05267 39.3438 5.586C39.7451 5.11933 40.2398 4.74133 40.8278 4.452C41.4158 4.15333 42.0831 4.004 42.8298 4.004C43.7165 4.004 44.4725 4.20467 45.0978 4.606C45.7325 5.00733 46.1991 5.53 46.4978 6.174L45.7278 6.65C45.5691 6.32333 45.3731 6.048 45.1398 5.824C44.9158 5.6 44.6731 5.418 44.4118 5.278C44.1505 5.138 43.8798 5.04 43.5998 4.984C43.3198 4.91867 43.0445 4.886 42.7738 4.886C42.1765 4.886 41.6491 5.00733 41.1918 5.25C40.7345 5.49267 40.3471 5.81 40.0298 6.202C39.7218 6.594 39.4885 7.03733 39.3298 7.532C39.1711 8.01733 39.0918 8.512 39.0918 9.016C39.0918 9.56667 39.1851 10.094 39.3718 10.598C39.5678 11.102 39.8291 11.55 40.1558 11.942C40.4918 12.3247 40.8838 12.6327 41.3318 12.866C41.7891 13.09 42.2838 13.202 42.8158 13.202C43.0958 13.202 43.3805 13.1693 43.6698 13.104C43.9685 13.0293 44.2531 12.9173 44.5238 12.768C44.8038 12.6093 45.0605 12.418 45.2938 12.194C45.5271 11.9607 45.7231 11.6807 45.8818 11.354L46.6938 11.774C46.5351 12.1473 46.3111 12.4787 46.0218 12.768C45.7325 13.048 45.4105 13.286 45.0558 13.482C44.7011 13.678 44.3231 13.8273 43.9218 13.93C43.5298 14.0327 43.1425 14.084 42.7598 14.084C42.0785 14.084 41.4531 13.9347 40.8838 13.636C40.3145 13.3373 39.8245 12.95 39.4138 12.474C39.0031 11.9887 38.6811 11.4427 38.4478 10.836C38.2238 10.22 38.1118 9.59467 38.1118 8.96ZM52.4975 6.706H53.5615L50.8035 10.234L53.7995 14H52.7355L50.1595 10.668H49.1235V14H48.1855V6.706H49.1235V9.926H50.0755L52.4975 6.706ZM56.7184 14.14C56.373 14.14 56.051 14.084 55.7524 13.972C55.463 13.8507 55.2064 13.6873 54.9824 13.482C54.7677 13.2767 54.5997 13.0387 54.4784 12.768C54.357 12.488 54.2964 12.1893 54.2964 11.872C54.2964 11.5547 54.371 11.2607 54.5204 10.99C54.6697 10.7193 54.8797 10.486 55.1504 10.29C55.421 10.094 55.743 9.94467 56.1164 9.842C56.4897 9.73 56.9004 9.674 57.3484 9.674C57.7217 9.674 58.0997 9.70667 58.4824 9.772C58.865 9.83733 59.2057 9.93067 59.5044 10.052V9.394C59.5044 8.75 59.3224 8.24133 58.9584 7.868C58.5944 7.48533 58.0904 7.294 57.4464 7.294C57.073 7.294 56.6904 7.36867 56.2984 7.518C55.9064 7.66733 55.5097 7.882 55.1084 8.162L54.7724 7.532C55.715 6.89733 56.6297 6.58 57.5164 6.58C58.431 6.58 59.1497 6.83667 59.6724 7.35C60.195 7.86333 60.4564 8.57267 60.4564 9.478V12.768C60.4564 13.0293 60.573 13.16 60.8064 13.16V14C60.6477 14.028 60.5264 14.042 60.4424 14.042C60.1997 14.042 60.0084 13.9813 59.8684 13.86C59.7377 13.7387 59.6677 13.5707 59.6584 13.356L59.6304 12.782C59.2944 13.2207 58.8697 13.5567 58.3564 13.79C57.8524 14.0233 57.3064 14.14 56.7184 14.14ZM56.9424 13.412C57.437 13.412 57.8897 13.3187 58.3004 13.132C58.7204 12.9453 59.0377 12.698 59.2524 12.39C59.3364 12.306 59.397 12.2173 59.4344 12.124C59.481 12.0213 59.5044 11.928 59.5044 11.844V10.654C59.187 10.5327 58.8557 10.4393 58.5104 10.374C58.1744 10.3087 57.829 10.276 57.4744 10.276C56.8024 10.276 56.2564 10.416 55.8364 10.696C55.4164 10.976 55.2064 11.3447 55.2064 11.802C55.2064 12.026 55.2484 12.236 55.3324 12.432C55.4257 12.628 55.547 12.8007 55.6964 12.95C55.855 13.09 56.0417 13.202 56.2564 13.286C56.471 13.37 56.6997 13.412 56.9424 13.412ZM67.1329 14H66.1809V10.962C65.9383 11.0553 65.6863 11.1253 65.4249 11.172C65.1729 11.2093 64.8323 11.228 64.4029 11.228C63.9643 11.228 63.5956 11.1627 63.2969 11.032C63.0076 10.9013 62.7696 10.724 62.5829 10.5C62.3963 10.276 62.2609 10.01 62.1769 9.702C62.1023 9.38467 62.0649 9.044 62.0649 8.68V6.706H63.0029V8.512C63.0029 9.20267 63.1383 9.69267 63.4089 9.982C63.6796 10.262 64.0669 10.402 64.5709 10.402C64.9629 10.402 65.2943 10.3647 65.5649 10.29C65.8356 10.206 66.0409 10.108 66.1809 9.996V6.706H67.1329V14ZM71.0875 14.14C70.7422 14.14 70.4202 14.084 70.1215 13.972C69.8322 13.8507 69.5755 13.6873 69.3515 13.482C69.1368 13.2767 68.9688 13.0387 68.8475 12.768C68.7262 12.488 68.6655 12.1893 68.6655 11.872C68.6655 11.5547 68.7402 11.2607 68.8895 10.99C69.0388 10.7193 69.2488 10.486 69.5195 10.29C69.7902 10.094 70.1122 9.94467 70.4855 9.842C70.8588 9.73 71.2695 9.674 71.7175 9.674C72.0908 9.674 72.4688 9.70667 72.8515 9.772C73.2342 9.83733 73.5748 9.93067 73.8735 10.052V9.394C73.8735 8.75 73.6915 8.24133 73.3275 7.868C72.9635 7.48533 72.4595 7.294 71.8155 7.294C71.4422 7.294 71.0595 7.36867 70.6675 7.518C70.2755 7.66733 69.8788 7.882 69.4775 8.162L69.1415 7.532C70.0842 6.89733 70.9988 6.58 71.8855 6.58C72.8002 6.58 73.5188 6.83667 74.0415 7.35C74.5642 7.86333 74.8255 8.57267 74.8255 9.478V12.768C74.8255 13.0293 74.9422 13.16 75.1755 13.16V14C75.0168 14.028 74.8955 14.042 74.8115 14.042C74.5688 14.042 74.3775 13.9813 74.2375 13.86C74.1068 13.7387 74.0368 13.5707 74.0275 13.356L73.9995 12.782C73.6635 13.2207 73.2388 13.5567 72.7255 13.79C72.2215 14.0233 71.6755 14.14 71.0875 14.14ZM71.3115 13.412C71.8062 13.412 72.2588 13.3187 72.6695 13.132C73.0895 12.9453 73.4068 12.698 73.6215 12.39C73.7055 12.306 73.7662 12.2173 73.8035 12.124C73.8502 12.0213 73.8735 11.928 73.8735 11.844V10.654C73.5562 10.5327 73.2248 10.4393 72.8795 10.374C72.5435 10.3087 72.1982 10.276 71.8435 10.276C71.1715 10.276 70.6255 10.416 70.2055 10.696C69.7855 10.976 69.5755 11.3447 69.5755 11.802C69.5755 12.026 69.6175 12.236 69.7015 12.432C69.7948 12.628 69.9162 12.8007 70.0655 12.95C70.2242 13.09 70.4108 13.202 70.6255 13.286C70.8402 13.37 71.0688 13.412 71.3115 13.412ZM79.421 14H78.497V7.532H75.935V6.706H81.983V7.532H79.421V14ZM83.3359 6.706H84.2739V9.296H85.8559C86.1919 9.296 86.5092 9.34733 86.8079 9.45C87.1065 9.55267 87.3679 9.702 87.5919 9.898C87.8159 10.094 87.9932 10.3413 88.1239 10.64C88.2545 10.9293 88.3199 11.2653 88.3199 11.648C88.3199 12.0307 88.2545 12.3713 88.1239 12.67C87.9932 12.9593 87.8159 13.202 87.5919 13.398C87.3679 13.594 87.1065 13.7433 86.8079 13.846C86.5092 13.9487 86.1919 14 85.8559 14H83.3359V6.706ZM85.8559 13.188C86.3412 13.188 86.7145 13.0527 86.9759 12.782C87.2465 12.502 87.3819 12.124 87.3819 11.648C87.3819 11.172 87.2465 10.7987 86.9759 10.528C86.7052 10.248 86.3319 10.108 85.8559 10.108H84.2739V13.188H85.8559ZM92.8393 10.332C92.8393 9.81867 92.928 9.33333 93.1053 8.876C93.2827 8.41867 93.53 8.022 93.8473 7.686C94.174 7.34067 94.5613 7.07 95.0093 6.874C95.4573 6.678 95.952 6.58 96.4933 6.58C97.184 6.58 97.786 6.73867 98.2993 7.056C98.8127 7.364 99.2 7.784 99.4613 8.316L98.5373 8.61C98.332 8.23667 98.0427 7.94733 97.6693 7.742C97.3053 7.52733 96.8993 7.42 96.4513 7.42C96.078 7.42 95.728 7.49467 95.4013 7.644C95.084 7.79333 94.804 7.99867 94.5613 8.26C94.328 8.512 94.1413 8.81533 94.0013 9.17C93.8707 9.52467 93.8053 9.912 93.8053 10.332C93.8053 10.7427 93.8753 11.13 94.0153 11.494C94.1553 11.858 94.3467 12.1753 94.5893 12.446C94.832 12.7073 95.112 12.9173 95.4293 13.076C95.756 13.2253 96.1013 13.3 96.4653 13.3C96.6987 13.3 96.9273 13.2673 97.1513 13.202C97.3847 13.1367 97.5993 13.048 97.7953 12.936C97.9913 12.8147 98.1593 12.6793 98.2993 12.53C98.4393 12.3807 98.5373 12.222 98.5933 12.054L99.5313 12.334C99.4287 12.5953 99.2793 12.838 99.0833 13.062C98.8873 13.2767 98.654 13.468 98.3833 13.636C98.122 13.7947 97.828 13.916 97.5013 14C97.184 14.0933 96.8527 14.14 96.5073 14.14C95.9753 14.14 95.4853 14.042 95.0373 13.846C94.5893 13.6407 94.202 13.3653 93.8753 13.02C93.5487 12.6653 93.292 12.2593 93.1053 11.802C92.928 11.3447 92.8393 10.8547 92.8393 10.332ZM41.8498 20.06H42.6758L46.8058 30H45.7698L44.4818 26.892H40.0158L38.7418 30H37.6918L41.8498 20.06ZM44.2578 26.122L42.2558 21.208L40.2258 26.122H44.2578ZM51.7587 30.14C51.1427 30.14 50.5967 29.986 50.1207 29.678C49.6541 29.3607 49.2761 28.964 48.9867 28.488V32.982H48.0347V22.706H48.8887V24.12C49.1874 23.6627 49.5747 23.294 50.0507 23.014C50.5267 22.7247 51.0447 22.58 51.6047 22.58C52.1087 22.58 52.5707 22.6873 52.9907 22.902C53.4107 23.1073 53.7747 23.3873 54.0827 23.742C54.3907 24.0873 54.6287 24.4887 54.7967 24.946C54.9741 25.4033 55.0627 25.8747 55.0627 26.36C55.0627 26.8733 54.9834 27.3587 54.8247 27.816C54.6661 28.2733 54.4374 28.6747 54.1387 29.02C53.8494 29.3653 53.4994 29.6407 53.0887 29.846C52.6874 30.042 52.2441 30.14 51.7587 30.14ZM51.4927 29.3C51.8847 29.3 52.2394 29.216 52.5567 29.048C52.8834 28.88 53.1587 28.6607 53.3827 28.39C53.6161 28.11 53.7934 27.7973 53.9147 27.452C54.0361 27.0973 54.0967 26.7333 54.0967 26.36C54.0967 25.968 54.0267 25.5947 53.8867 25.24C53.7467 24.8853 53.5554 24.5727 53.3127 24.302C53.0701 24.0313 52.7807 23.8167 52.4447 23.658C52.1181 23.4993 51.7634 23.42 51.3807 23.42C51.1381 23.42 50.8814 23.4713 50.6107 23.574C50.3494 23.6673 50.1021 23.798 49.8687 23.966C49.6447 24.1247 49.4487 24.316 49.2807 24.54C49.1221 24.7547 49.0241 24.9833 48.9867 25.226V27.466C49.0987 27.7273 49.2387 27.97 49.4067 28.194C49.5841 28.418 49.7801 28.614 49.9947 28.782C50.2187 28.9407 50.4567 29.0667 50.7087 29.16C50.9607 29.2533 51.2221 29.3 51.4927 29.3ZM60.3994 30.14C59.7834 30.14 59.2374 29.986 58.7614 29.678C58.2947 29.3607 57.9167 28.964 57.6274 28.488V32.982H56.6754V22.706H57.5294V24.12C57.828 23.6627 58.2154 23.294 58.6914 23.014C59.1674 22.7247 59.6854 22.58 60.2454 22.58C60.7494 22.58 61.2114 22.6873 61.6314 22.902C62.0514 23.1073 62.4154 23.3873 62.7234 23.742C63.0314 24.0873 63.2694 24.4887 63.4374 24.946C63.6147 25.4033 63.7034 25.8747 63.7034 26.36C63.7034 26.8733 63.624 27.3587 63.4654 27.816C63.3067 28.2733 63.078 28.6747 62.7794 29.02C62.49 29.3653 62.14 29.6407 61.7294 29.846C61.328 30.042 60.8847 30.14 60.3994 30.14ZM60.1334 29.3C60.5254 29.3 60.88 29.216 61.1974 29.048C61.524 28.88 61.7994 28.6607 62.0234 28.39C62.2567 28.11 62.434 27.7973 62.5554 27.452C62.6767 27.0973 62.7374 26.7333 62.7374 26.36C62.7374 25.968 62.6674 25.5947 62.5274 25.24C62.3874 24.8853 62.196 24.5727 61.9534 24.302C61.7107 24.0313 61.4214 23.8167 61.0854 23.658C60.7587 23.4993 60.404 23.42 60.0214 23.42C59.7787 23.42 59.522 23.4713 59.2514 23.574C58.99 23.6673 58.7427 23.798 58.5094 23.966C58.2854 24.1247 58.0894 24.316 57.9214 24.54C57.7627 24.7547 57.6647 24.9833 57.6274 25.226V27.466C57.7394 27.7273 57.8794 27.97 58.0474 28.194C58.2247 28.418 58.4207 28.614 58.6354 28.782C58.8594 28.9407 59.0974 29.0667 59.3494 29.16C59.6014 29.2533 59.8627 29.3 60.1334 29.3ZM74.8904 21.922C74.6104 21.6047 74.237 21.348 73.7704 21.152C73.3037 20.956 72.7717 20.858 72.1744 20.858C71.297 20.858 70.6577 21.026 70.2564 21.362C69.855 21.6887 69.6544 22.1367 69.6544 22.706C69.6544 23.0047 69.7057 23.252 69.8084 23.448C69.9204 23.6347 70.0884 23.798 70.3124 23.938C70.5364 24.078 70.821 24.1993 71.1664 24.302C71.521 24.4047 71.9364 24.5073 72.4124 24.61C72.9444 24.722 73.4204 24.848 73.8404 24.988C74.2697 25.128 74.6337 25.3053 74.9324 25.52C75.231 25.7253 75.4597 25.9773 75.6184 26.276C75.777 26.5747 75.8564 26.948 75.8564 27.396C75.8564 27.8533 75.7677 28.25 75.5904 28.586C75.413 28.922 75.1657 29.202 74.8484 29.426C74.531 29.65 74.153 29.818 73.7144 29.93C73.2757 30.0327 72.795 30.084 72.2724 30.084C70.7324 30.084 69.4024 29.6033 68.2824 28.642L68.7724 27.844C68.9497 28.0307 69.1597 28.208 69.4024 28.376C69.6544 28.544 69.9297 28.6933 70.2284 28.824C70.5364 28.9453 70.863 29.0433 71.2084 29.118C71.5537 29.1833 71.9177 29.216 72.3004 29.216C73.0937 29.216 73.7097 29.076 74.1484 28.796C74.5964 28.5067 74.8204 28.0727 74.8204 27.494C74.8204 27.186 74.755 26.9293 74.6244 26.724C74.503 26.5093 74.3164 26.3273 74.0644 26.178C73.8124 26.0193 73.4997 25.884 73.1264 25.772C72.753 25.66 72.319 25.548 71.8244 25.436C71.3017 25.3147 70.8444 25.1887 70.4524 25.058C70.0604 24.9273 69.729 24.764 69.4584 24.568C69.1877 24.372 68.9824 24.1387 68.8424 23.868C68.7117 23.588 68.6464 23.2473 68.6464 22.846C68.6464 22.3887 68.7304 21.9827 68.8984 21.628C69.0757 21.264 69.323 20.9653 69.6404 20.732C69.9577 20.4893 70.331 20.3073 70.7604 20.186C71.1897 20.0553 71.6657 19.99 72.1884 19.99C72.851 19.99 73.439 20.0927 73.9524 20.298C74.475 20.494 74.9464 20.774 75.3664 21.138L74.8904 21.922ZM80.8062 29.65C80.7502 29.678 80.6662 29.7153 80.5542 29.762C80.4516 29.8087 80.3302 29.8553 80.1902 29.902C80.0502 29.9487 79.8916 29.9907 79.7142 30.028C79.5369 30.0653 79.3502 30.084 79.1542 30.084C78.9489 30.084 78.7529 30.056 78.5662 30C78.3796 29.944 78.2162 29.86 78.0762 29.748C77.9362 29.6267 77.8242 29.4773 77.7402 29.3C77.6562 29.1227 77.6142 28.9173 77.6142 28.684V23.462H76.6062V22.706H77.6142V20.242H78.5662V22.706H80.2462V23.462H78.5662V28.418C78.5849 28.6887 78.6782 28.8893 78.8462 29.02C79.0236 29.1413 79.2242 29.202 79.4482 29.202C79.7189 29.202 79.9569 29.16 80.1622 29.076C80.3676 28.9827 80.4982 28.9173 80.5542 28.88L80.8062 29.65ZM84.9259 30.14C84.3939 30.14 83.9086 30.042 83.4699 29.846C83.0313 29.6407 82.6486 29.3653 82.3219 29.02C82.0046 28.6747 81.7573 28.2733 81.5799 27.816C81.4026 27.3587 81.3139 26.878 81.3139 26.374C81.3139 25.8607 81.4026 25.3753 81.5799 24.918C81.7666 24.4607 82.0186 24.0593 82.3359 23.714C82.6626 23.3687 83.0453 23.0933 83.4839 22.888C83.9226 22.6827 84.4033 22.58 84.9259 22.58C85.4486 22.58 85.9293 22.6827 86.3679 22.888C86.8159 23.0933 87.1986 23.3687 87.5159 23.714C87.8426 24.0593 88.0946 24.4607 88.2719 24.918C88.4586 25.3753 88.5519 25.8607 88.5519 26.374C88.5519 26.878 88.4633 27.3587 88.2859 27.816C88.1086 28.2733 87.8566 28.6747 87.5299 29.02C87.2126 29.3653 86.8299 29.6407 86.3819 29.846C85.9433 30.042 85.4579 30.14 84.9259 30.14ZM82.2799 26.388C82.2799 26.7987 82.3499 27.1813 82.4899 27.536C82.6299 27.8813 82.8166 28.1893 83.0499 28.46C83.2926 28.7213 83.5726 28.9267 83.8899 29.076C84.2166 29.2253 84.5619 29.3 84.9259 29.3C85.2899 29.3 85.6306 29.2253 85.9479 29.076C86.2746 28.9173 86.5593 28.7073 86.8019 28.446C87.0446 28.1753 87.2359 27.8627 87.3759 27.508C87.5159 27.1533 87.5859 26.7707 87.5859 26.36C87.5859 25.9587 87.5159 25.5807 87.3759 25.226C87.2359 24.862 87.0446 24.5493 86.8019 24.288C86.5593 24.0173 86.2746 23.8073 85.9479 23.658C85.6306 23.4993 85.2899 23.42 84.9259 23.42C84.5619 23.42 84.2213 23.4993 83.9039 23.658C83.5866 23.8073 83.3066 24.0173 83.0639 24.288C82.8213 24.5587 82.6299 24.876 82.4899 25.24C82.3499 25.5947 82.2799 25.9773 82.2799 26.388ZM93.7841 23.546C93.1401 23.5647 92.5801 23.742 92.1041 24.078C91.6281 24.414 91.2921 24.876 91.0961 25.464V30H90.1441V22.706H91.0401V24.456C91.3108 23.896 91.6748 23.4573 92.1321 23.14C92.5894 22.8227 93.0794 22.664 93.6021 22.664C93.6768 22.664 93.7374 22.6687 93.7841 22.678V23.546ZM97.8332 30.14C97.3012 30.14 96.8112 30.042 96.3632 29.846C95.9245 29.6407 95.5418 29.3653 95.2152 29.02C94.8885 28.6653 94.6318 28.2593 94.4452 27.802C94.2678 27.3447 94.1792 26.8547 94.1792 26.332C94.1792 25.8187 94.2678 25.338 94.4452 24.89C94.6318 24.4327 94.8838 24.036 95.2012 23.7C95.5278 23.3547 95.9152 23.084 96.3632 22.888C96.8112 22.6827 97.2965 22.58 97.8192 22.58C98.3512 22.58 98.8365 22.6827 99.2752 22.888C99.7232 23.084 100.106 23.3547 100.423 23.7C100.741 24.0453 100.988 24.442 101.165 24.89C101.343 25.338 101.431 25.814 101.431 26.318C101.431 26.3927 101.431 26.4673 101.431 26.542C101.431 26.6167 101.427 26.668 101.417 26.696H95.1732C95.2012 27.088 95.2898 27.452 95.4392 27.788C95.5978 28.1147 95.7985 28.3993 96.0412 28.642C96.2838 28.8847 96.5592 29.076 96.8672 29.216C97.1845 29.3467 97.5205 29.412 97.8752 29.412C98.1085 29.412 98.3418 29.3793 98.5752 29.314C98.8085 29.2487 99.0232 29.16 99.2192 29.048C99.4152 28.936 99.5925 28.8007 99.7512 28.642C99.9098 28.474 100.031 28.292 100.115 28.096L100.941 28.32C100.829 28.5907 100.671 28.838 100.465 29.062C100.26 29.2767 100.022 29.468 99.7512 29.636C99.4805 29.7947 99.1818 29.916 98.8552 30C98.5285 30.0933 98.1878 30.14 97.8332 30.14ZM100.521 25.968C100.493 25.576 100.4 25.2213 100.241 24.904C100.092 24.5773 99.8958 24.2973 99.6532 24.064C99.4198 23.8307 99.1445 23.6487 98.8272 23.518C98.5192 23.3873 98.1878 23.322 97.8332 23.322C97.4785 23.322 97.1425 23.3873 96.8252 23.518C96.5078 23.6487 96.2278 23.8307 95.9852 24.064C95.7518 24.2973 95.5605 24.5773 95.4112 24.904C95.2712 25.2307 95.1872 25.5853 95.1592 25.968H100.521Z" fill="#999999"/>
</svg>
