<svg width="117" height="33" viewBox="0 0 117 33" fill="none" xmlns="http://www.w3.org/2000/svg">
<path d="M6.08108 2.48649C4.86486 1.83784 3.64865 1.83784 2.43243 2.48649L15.8108 14.973L20.2703 10.4324L6.08108 2.48649ZM0.486486 3.62162C0.162162 4.18919 0 4.83784 0 5.48649V28.5946C0 29.2432 0.162162 29.8108 0.486486 30.3784L13.7838 16.4324L0.486486 3.62162ZM25.6216 14.1622L21.2432 11.7297L16.2162 16.6757L22.2973 22.2703L25.6216 20.4865C26.8378 19.8378 27.5676 18.6216 27.5676 17.2432C27.5676 16.027 26.8378 14.8108 25.6216 14.1622Z" fill="#999999"/>
<path d="M15.4054 17.4054L1.62161 31.5135C2.83783 32.1622 4.21621 32.1622 5.43242 31.5135L21.0811 22.8378L15.4054 17.4054Z" fill="#999999"/>
<path d="M38.588 7.96C38.588 7.36267 38.6907 6.77 38.896 6.182C39.1107 5.58467 39.4187 5.05267 39.82 4.586C40.2213 4.11933 40.716 3.74133 41.304 3.452C41.892 3.15333 42.5593 3.004 43.306 3.004C44.1927 3.004 44.9487 3.20467 45.574 3.606C46.2087 4.00733 46.6753 4.53 46.974 5.174L46.204 5.65C46.0453 5.32333 45.8493 5.048 45.616 4.824C45.392 4.6 45.1493 4.418 44.888 4.278C44.6267 4.138 44.356 4.04 44.076 3.984C43.796 3.91867 43.5207 3.886 43.25 3.886C42.6527 3.886 42.1253 4.00733 41.668 4.25C41.2107 4.49267 40.8233 4.81 40.506 5.202C40.198 5.594 39.9647 6.03733 39.806 6.532C39.6473 7.01733 39.568 7.512 39.568 8.016C39.568 8.56667 39.6613 9.094 39.848 9.598C40.044 10.102 40.3053 10.55 40.632 10.942C40.968 11.3247 41.36 11.6327 41.808 11.866C42.2653 12.09 42.76 12.202 43.292 12.202C43.572 12.202 43.8567 12.1693 44.146 12.104C44.4447 12.0293 44.7293 11.9173 45 11.768C45.28 11.6093 45.5367 11.418 45.77 11.194C46.0033 10.9607 46.1993 10.6807 46.358 10.354L47.17 10.774C47.0113 11.1473 46.7873 11.4787 46.498 11.768C46.2087 12.048 45.8867 12.286 45.532 12.482C45.1773 12.678 44.7993 12.8273 44.398 12.93C44.006 13.0327 43.6187 13.084 43.236 13.084C42.5547 13.084 41.9293 12.9347 41.36 12.636C40.7907 12.3373 40.3007 11.95 39.89 11.474C39.4793 10.9887 39.1573 10.4427 38.924 9.836C38.7 9.22 38.588 8.59467 38.588 7.96ZM52.9737 5.706H54.0377L51.2797 9.234L54.2757 13H53.2117L50.6357 9.668H49.5997V13H48.6617V5.706H49.5997V8.926H50.5517L52.9737 5.706ZM57.1945 13.14C56.8492 13.14 56.5272 13.084 56.2285 12.972C55.9392 12.8507 55.6825 12.6873 55.4585 12.482C55.2439 12.2767 55.0759 12.0387 54.9545 11.768C54.8332 11.488 54.7725 11.1893 54.7725 10.872C54.7725 10.5547 54.8472 10.2607 54.9965 9.99C55.1459 9.71933 55.3559 9.486 55.6265 9.29C55.8972 9.094 56.2192 8.94467 56.5925 8.842C56.9659 8.73 57.3765 8.674 57.8245 8.674C58.1979 8.674 58.5759 8.70667 58.9585 8.772C59.3412 8.83733 59.6819 8.93067 59.9805 9.052V8.394C59.9805 7.75 59.7985 7.24133 59.4345 6.868C59.0705 6.48533 58.5665 6.294 57.9225 6.294C57.5492 6.294 57.1665 6.36867 56.7745 6.518C56.3825 6.66733 55.9859 6.882 55.5845 7.162L55.2485 6.532C56.1912 5.89733 57.1059 5.58 57.9925 5.58C58.9072 5.58 59.6259 5.83667 60.1485 6.35C60.6712 6.86333 60.9325 7.57267 60.9325 8.478V11.768C60.9325 12.0293 61.0492 12.16 61.2825 12.16V13C61.1239 13.028 61.0025 13.042 60.9185 13.042C60.6759 13.042 60.4845 12.9813 60.3445 12.86C60.2139 12.7387 60.1439 12.5707 60.1345 12.356L60.1065 11.782C59.7705 12.2207 59.3459 12.5567 58.8325 12.79C58.3285 13.0233 57.7825 13.14 57.1945 13.14ZM57.4185 12.412C57.9132 12.412 58.3659 12.3187 58.7765 12.132C59.1965 11.9453 59.5139 11.698 59.7285 11.39C59.8125 11.306 59.8732 11.2173 59.9105 11.124C59.9572 11.0213 59.9805 10.928 59.9805 10.844V9.654C59.6632 9.53267 59.3319 9.43933 58.9865 9.374C58.6505 9.30867 58.3052 9.276 57.9505 9.276C57.2785 9.276 56.7325 9.416 56.3125 9.696C55.8925 9.976 55.6825 10.3447 55.6825 10.802C55.6825 11.026 55.7245 11.236 55.8085 11.432C55.9019 11.628 56.0232 11.8007 56.1725 11.95C56.3312 12.09 56.5179 12.202 56.7325 12.286C56.9472 12.37 57.1759 12.412 57.4185 12.412ZM67.6091 13H66.6571V9.962C66.4145 10.0553 66.1625 10.1253 65.9011 10.172C65.6491 10.2093 65.3085 10.228 64.8791 10.228C64.4405 10.228 64.0718 10.1627 63.7731 10.032C63.4838 9.90133 63.2458 9.724 63.0591 9.5C62.8725 9.276 62.7371 9.01 62.6531 8.702C62.5785 8.38467 62.5411 8.044 62.5411 7.68V5.706H63.4791V7.512C63.4791 8.20267 63.6145 8.69267 63.8851 8.982C64.1558 9.262 64.5431 9.402 65.0471 9.402C65.4391 9.402 65.7705 9.36467 66.0411 9.29C66.3118 9.206 66.5171 9.108 66.6571 8.996V5.706H67.6091V13ZM71.5637 13.14C71.2184 13.14 70.8964 13.084 70.5977 12.972C70.3084 12.8507 70.0517 12.6873 69.8277 12.482C69.613 12.2767 69.445 12.0387 69.3237 11.768C69.2024 11.488 69.1417 11.1893 69.1417 10.872C69.1417 10.5547 69.2164 10.2607 69.3657 9.99C69.515 9.71933 69.725 9.486 69.9957 9.29C70.2664 9.094 70.5884 8.94467 70.9617 8.842C71.335 8.73 71.7457 8.674 72.1937 8.674C72.567 8.674 72.945 8.70667 73.3277 8.772C73.7104 8.83733 74.051 8.93067 74.3497 9.052V8.394C74.3497 7.75 74.1677 7.24133 73.8037 6.868C73.4397 6.48533 72.9357 6.294 72.2917 6.294C71.9184 6.294 71.5357 6.36867 71.1437 6.518C70.7517 6.66733 70.355 6.882 69.9537 7.162L69.6177 6.532C70.5604 5.89733 71.475 5.58 72.3617 5.58C73.2764 5.58 73.995 5.83667 74.5177 6.35C75.0404 6.86333 75.3017 7.57267 75.3017 8.478V11.768C75.3017 12.0293 75.4184 12.16 75.6517 12.16V13C75.493 13.028 75.3717 13.042 75.2877 13.042C75.045 13.042 74.8537 12.9813 74.7137 12.86C74.583 12.7387 74.513 12.5707 74.5037 12.356L74.4757 11.782C74.1397 12.2207 73.715 12.5567 73.2017 12.79C72.6977 13.0233 72.1517 13.14 71.5637 13.14ZM71.7877 12.412C72.2824 12.412 72.735 12.3187 73.1457 12.132C73.5657 11.9453 73.883 11.698 74.0977 11.39C74.1817 11.306 74.2424 11.2173 74.2797 11.124C74.3264 11.0213 74.3497 10.928 74.3497 10.844V9.654C74.0324 9.53267 73.701 9.43933 73.3557 9.374C73.0197 9.30867 72.6744 9.276 72.3197 9.276C71.6477 9.276 71.1017 9.416 70.6817 9.696C70.2617 9.976 70.0517 10.3447 70.0517 10.802C70.0517 11.026 70.0937 11.236 70.1777 11.432C70.271 11.628 70.3924 11.8007 70.5417 11.95C70.7004 12.09 70.887 12.202 71.1017 12.286C71.3164 12.37 71.545 12.412 71.7877 12.412ZM79.8972 13H78.9732V6.532H76.4112V5.706H82.4592V6.532H79.8972V13ZM83.812 5.706H84.75V8.296H86.332C86.668 8.296 86.9854 8.34733 87.284 8.45C87.5827 8.55267 87.844 8.702 88.068 8.898C88.292 9.094 88.4694 9.34133 88.6 9.64C88.7307 9.92933 88.796 10.2653 88.796 10.648C88.796 11.0307 88.7307 11.3713 88.6 11.67C88.4694 11.9593 88.292 12.202 88.068 12.398C87.844 12.594 87.5827 12.7433 87.284 12.846C86.9854 12.9487 86.668 13 86.332 13H83.812V5.706ZM86.332 12.188C86.8174 12.188 87.1907 12.0527 87.452 11.782C87.7227 11.502 87.858 11.124 87.858 10.648C87.858 10.172 87.7227 9.79867 87.452 9.528C87.1814 9.248 86.808 9.108 86.332 9.108H84.75V12.188H86.332ZM93.3155 9.332C93.3155 8.81867 93.4042 8.33333 93.5815 7.876C93.7589 7.41867 94.0062 7.022 94.3235 6.686C94.6502 6.34067 95.0375 6.07 95.4855 5.874C95.9335 5.678 96.4282 5.58 96.9695 5.58C97.6602 5.58 98.2622 5.73867 98.7755 6.056C99.2889 6.364 99.6762 6.784 99.9375 7.316L99.0135 7.61C98.8082 7.23667 98.5189 6.94733 98.1455 6.742C97.7815 6.52733 97.3755 6.42 96.9275 6.42C96.5542 6.42 96.2042 6.49467 95.8775 6.644C95.5602 6.79333 95.2802 6.99867 95.0375 7.26C94.8042 7.512 94.6175 7.81533 94.4775 8.17C94.3469 8.52467 94.2815 8.912 94.2815 9.332C94.2815 9.74267 94.3515 10.13 94.4915 10.494C94.6315 10.858 94.8229 11.1753 95.0655 11.446C95.3082 11.7073 95.5882 11.9173 95.9055 12.076C96.2322 12.2253 96.5775 12.3 96.9415 12.3C97.1749 12.3 97.4035 12.2673 97.6275 12.202C97.8609 12.1367 98.0755 12.048 98.2715 11.936C98.4675 11.8147 98.6355 11.6793 98.7755 11.53C98.9155 11.3807 99.0135 11.222 99.0695 11.054L100.008 11.334C99.9049 11.5953 99.7555 11.838 99.5595 12.062C99.3635 12.2767 99.1302 12.468 98.8595 12.636C98.5982 12.7947 98.3042 12.916 97.9775 13C97.6602 13.0933 97.3289 13.14 96.9835 13.14C96.4515 13.14 95.9615 13.042 95.5135 12.846C95.0655 12.6407 94.6782 12.3653 94.3515 12.02C94.0249 11.6653 93.7682 11.2593 93.5815 10.802C93.4042 10.3447 93.3155 9.85467 93.3155 9.332ZM46.428 27.544C45.504 28.5613 44.44 29.07 43.236 29.07C42.564 29.07 41.9433 28.9253 41.374 28.636C40.814 28.3467 40.324 27.964 39.904 27.488C39.4933 27.012 39.1713 26.4753 38.938 25.878C38.7047 25.2713 38.588 24.6507 38.588 24.016C38.588 23.3533 38.7 22.7187 38.924 22.112C39.1573 21.5053 39.4793 20.9733 39.89 20.516C40.3007 20.0493 40.786 19.6807 41.346 19.41C41.906 19.13 42.5173 18.99 43.18 18.99C43.6653 18.99 44.1087 19.046 44.51 19.158C44.9113 19.2607 45.266 19.41 45.574 19.606C45.8913 19.7927 46.162 20.0213 46.386 20.292C46.6193 20.5533 46.8153 20.8427 46.974 21.16L46.218 21.664C45.8913 21.048 45.4667 20.5953 44.944 20.306C44.4213 20.0167 43.8287 19.872 43.166 19.872C42.6153 19.872 42.116 19.9887 41.668 20.222C41.2293 20.4553 40.8513 20.768 40.534 21.16C40.226 21.5427 39.988 21.986 39.82 22.49C39.652 22.9847 39.568 23.498 39.568 24.03C39.568 24.59 39.6613 25.122 39.848 25.626C40.044 26.13 40.31 26.5733 40.646 26.956C40.982 27.3293 41.374 27.628 41.822 27.852C42.2793 28.076 42.774 28.188 43.306 28.188C43.8753 28.188 44.4167 28.0573 44.93 27.796C45.4527 27.5253 45.952 27.1007 46.428 26.522V24.87H44.216V24.114H47.254V29H46.428V27.544ZM52.1795 29.14C51.6475 29.14 51.1622 29.042 50.7235 28.846C50.2848 28.6407 49.9022 28.3653 49.5755 28.02C49.2582 27.6747 49.0108 27.2733 48.8335 26.816C48.6562 26.3587 48.5675 25.878 48.5675 25.374C48.5675 24.8607 48.6562 24.3753 48.8335 23.918C49.0202 23.4607 49.2722 23.0593 49.5895 22.714C49.9162 22.3687 50.2988 22.0933 50.7375 21.888C51.1762 21.6827 51.6568 21.58 52.1795 21.58C52.7022 21.58 53.1828 21.6827 53.6215 21.888C54.0695 22.0933 54.4522 22.3687 54.7695 22.714C55.0962 23.0593 55.3482 23.4607 55.5255 23.918C55.7122 24.3753 55.8055 24.8607 55.8055 25.374C55.8055 25.878 55.7168 26.3587 55.5395 26.816C55.3622 27.2733 55.1102 27.6747 54.7835 28.02C54.4662 28.3653 54.0835 28.6407 53.6355 28.846C53.1968 29.042 52.7115 29.14 52.1795 29.14ZM49.5335 25.388C49.5335 25.7987 49.6035 26.1813 49.7435 26.536C49.8835 26.8813 50.0702 27.1893 50.3035 27.46C50.5462 27.7213 50.8262 27.9267 51.1435 28.076C51.4702 28.2253 51.8155 28.3 52.1795 28.3C52.5435 28.3 52.8842 28.2253 53.2015 28.076C53.5282 27.9173 53.8128 27.7073 54.0555 27.446C54.2982 27.1753 54.4895 26.8627 54.6295 26.508C54.7695 26.1533 54.8395 25.7707 54.8395 25.36C54.8395 24.9587 54.7695 24.5807 54.6295 24.226C54.4895 23.862 54.2982 23.5493 54.0555 23.288C53.8128 23.0173 53.5282 22.8073 53.2015 22.658C52.8842 22.4993 52.5435 22.42 52.1795 22.42C51.8155 22.42 51.4748 22.4993 51.1575 22.658C50.8402 22.8073 50.5602 23.0173 50.3175 23.288C50.0748 23.5587 49.8835 23.876 49.7435 24.24C49.6035 24.5947 49.5335 24.9773 49.5335 25.388ZM60.5057 29.14C59.9737 29.14 59.4883 29.042 59.0497 28.846C58.611 28.6407 58.2283 28.3653 57.9017 28.02C57.5843 27.6747 57.337 27.2733 57.1597 26.816C56.9823 26.3587 56.8937 25.878 56.8937 25.374C56.8937 24.8607 56.9823 24.3753 57.1597 23.918C57.3463 23.4607 57.5983 23.0593 57.9157 22.714C58.2423 22.3687 58.625 22.0933 59.0637 21.888C59.5023 21.6827 59.983 21.58 60.5057 21.58C61.0283 21.58 61.509 21.6827 61.9477 21.888C62.3957 22.0933 62.7783 22.3687 63.0957 22.714C63.4223 23.0593 63.6743 23.4607 63.8517 23.918C64.0383 24.3753 64.1317 24.8607 64.1317 25.374C64.1317 25.878 64.043 26.3587 63.8657 26.816C63.6883 27.2733 63.4363 27.6747 63.1097 28.02C62.7923 28.3653 62.4097 28.6407 61.9617 28.846C61.523 29.042 61.0377 29.14 60.5057 29.14ZM57.8597 25.388C57.8597 25.7987 57.9297 26.1813 58.0697 26.536C58.2097 26.8813 58.3963 27.1893 58.6297 27.46C58.8723 27.7213 59.1523 27.9267 59.4697 28.076C59.7963 28.2253 60.1417 28.3 60.5057 28.3C60.8697 28.3 61.2103 28.2253 61.5277 28.076C61.8543 27.9173 62.139 27.7073 62.3817 27.446C62.6243 27.1753 62.8157 26.8627 62.9557 26.508C63.0957 26.1533 63.1657 25.7707 63.1657 25.36C63.1657 24.9587 63.0957 24.5807 62.9557 24.226C62.8157 23.862 62.6243 23.5493 62.3817 23.288C62.139 23.0173 61.8543 22.8073 61.5277 22.658C61.2103 22.4993 60.8697 22.42 60.5057 22.42C60.1417 22.42 59.801 22.4993 59.4837 22.658C59.1663 22.8073 58.8863 23.0173 58.6437 23.288C58.401 23.5587 58.2097 23.876 58.0697 24.24C57.9297 24.5947 57.8597 24.9773 57.8597 25.388ZM68.6498 29.098C68.1458 29.098 67.6838 28.9953 67.2638 28.79C66.8532 28.5753 66.4938 28.2953 66.1858 27.95C65.8872 27.6047 65.6538 27.208 65.4858 26.76C65.3178 26.312 65.2338 25.85 65.2338 25.374C65.2338 24.87 65.3132 24.3893 65.4718 23.932C65.6398 23.4653 65.8732 23.0593 66.1718 22.714C66.4705 22.3687 66.8252 22.0933 67.2358 21.888C67.6558 21.6827 68.1178 21.58 68.6218 21.58C69.2472 21.58 69.7885 21.7387 70.2458 22.056C70.7032 22.364 71.0952 22.756 71.4218 23.232V21.706H72.2758V29.028C72.2758 29.532 72.1778 29.9753 71.9818 30.358C71.7952 30.75 71.5385 31.0767 71.2118 31.338C70.8945 31.5993 70.5165 31.7953 70.0778 31.926C69.6485 32.0567 69.1912 32.122 68.7058 32.122C67.8658 32.122 67.1892 31.9727 66.6758 31.674C66.1625 31.3753 65.7472 30.974 65.4298 30.47L66.0178 30.008C66.3072 30.4747 66.6898 30.8153 67.1658 31.03C67.6418 31.254 68.1552 31.366 68.7058 31.366C69.0605 31.366 69.3965 31.3147 69.7138 31.212C70.0312 31.1187 70.3065 30.974 70.5398 30.778C70.7825 30.5913 70.9738 30.3487 71.1138 30.05C71.2538 29.7607 71.3238 29.42 71.3238 29.028V27.586C71.0438 28.0527 70.6612 28.4213 70.1758 28.692C69.6905 28.9627 69.1818 29.098 68.6498 29.098ZM68.9158 28.3C69.1958 28.3 69.4712 28.2487 69.7418 28.146C70.0125 28.0433 70.2552 27.908 70.4698 27.74C70.6938 27.5627 70.8805 27.3667 71.0298 27.152C71.1792 26.9373 71.2772 26.718 71.3238 26.494V24.24C71.2212 23.9787 71.0812 23.736 70.9038 23.512C70.7265 23.288 70.5258 23.0967 70.3018 22.938C70.0778 22.7793 69.8352 22.6533 69.5738 22.56C69.3218 22.4667 69.0652 22.42 68.8038 22.42C68.3932 22.42 68.0245 22.5087 67.6978 22.686C67.3805 22.854 67.1098 23.078 66.8858 23.358C66.6618 23.638 66.4892 23.9553 66.3678 24.31C66.2558 24.6647 66.1998 25.024 66.1998 25.388C66.1998 25.78 66.2698 26.1533 66.4098 26.508C66.5498 26.8627 66.7412 27.1753 66.9838 27.446C67.2358 27.7073 67.5252 27.9173 67.8518 28.076C68.1785 28.2253 68.5332 28.3 68.9158 28.3ZM74.4201 18.78H75.3721V27.348C75.3721 27.6187 75.4468 27.8333 75.5961 27.992C75.7455 28.1413 75.9555 28.216 76.2261 28.216C76.3288 28.216 76.4501 28.202 76.5901 28.174C76.7301 28.146 76.8608 28.1087 76.9821 28.062L77.1501 28.832C76.9728 28.9067 76.7535 28.9673 76.4921 29.014C76.2401 29.0607 76.0208 29.084 75.8341 29.084C75.3955 29.084 75.0501 28.9627 74.7981 28.72C74.5461 28.468 74.4201 28.118 74.4201 27.67V18.78ZM81.3426 29.14C80.8106 29.14 80.3206 29.042 79.8726 28.846C79.4339 28.6407 79.0512 28.3653 78.7246 28.02C78.3979 27.6653 78.1412 27.2593 77.9546 26.802C77.7772 26.3447 77.6886 25.8547 77.6886 25.332C77.6886 24.8187 77.7772 24.338 77.9546 23.89C78.1412 23.4327 78.3932 23.036 78.7106 22.7C79.0372 22.3547 79.4246 22.084 79.8726 21.888C80.3206 21.6827 80.8059 21.58 81.3286 21.58C81.8606 21.58 82.3459 21.6827 82.7846 21.888C83.2326 22.084 83.6152 22.3547 83.9326 22.7C84.2499 23.0453 84.4972 23.442 84.6746 23.89C84.8519 24.338 84.9406 24.814 84.9406 25.318C84.9406 25.3927 84.9406 25.4673 84.9406 25.542C84.9406 25.6167 84.9359 25.668 84.9266 25.696H78.6826C78.7106 26.088 78.7992 26.452 78.9486 26.788C79.1072 27.1147 79.3079 27.3993 79.5506 27.642C79.7932 27.8847 80.0686 28.076 80.3766 28.216C80.6939 28.3467 81.0299 28.412 81.3846 28.412C81.6179 28.412 81.8512 28.3793 82.0846 28.314C82.3179 28.2487 82.5326 28.16 82.7286 28.048C82.9246 27.936 83.1019 27.8007 83.2606 27.642C83.4192 27.474 83.5406 27.292 83.6246 27.096L84.4506 27.32C84.3386 27.5907 84.1799 27.838 83.9746 28.062C83.7692 28.2767 83.5312 28.468 83.2606 28.636C82.9899 28.7947 82.6912 28.916 82.3646 29C82.0379 29.0933 81.6972 29.14 81.3426 29.14ZM84.0306 24.968C84.0026 24.576 83.9092 24.2213 83.7506 23.904C83.6012 23.5773 83.4052 23.2973 83.1626 23.064C82.9292 22.8307 82.6539 22.6487 82.3366 22.518C82.0286 22.3873 81.6972 22.322 81.3426 22.322C80.9879 22.322 80.6519 22.3873 80.3346 22.518C80.0172 22.6487 79.7372 22.8307 79.4946 23.064C79.2612 23.2973 79.0699 23.5773 78.9206 23.904C78.7806 24.2307 78.6966 24.5853 78.6686 24.968H84.0306ZM90.1737 29V19.06H94.2897C94.7191 19.06 95.1111 19.1533 95.4657 19.34C95.8297 19.5173 96.1424 19.7553 96.4037 20.054C96.6651 20.3433 96.8704 20.6747 97.0197 21.048C97.1691 21.4213 97.2437 21.7993 97.2437 22.182C97.2437 22.5927 97.1737 22.9893 97.0337 23.372C96.8937 23.7453 96.6977 24.0767 96.4457 24.366C96.1937 24.6553 95.8904 24.8887 95.5357 25.066C95.1904 25.2433 94.8031 25.332 94.3737 25.332H91.1537V29H90.1737ZM91.1537 24.464H94.3317C94.6211 24.464 94.8824 24.4033 95.1157 24.282C95.3584 24.1513 95.5637 23.9833 95.7317 23.778C95.8997 23.5633 96.0304 23.3207 96.1237 23.05C96.2171 22.77 96.2637 22.4807 96.2637 22.182C96.2637 21.874 96.2077 21.5847 96.0957 21.314C95.9931 21.034 95.8484 20.7913 95.6617 20.586C95.4844 20.3807 95.2697 20.222 95.0177 20.11C94.7751 19.9887 94.5184 19.928 94.2477 19.928H91.1537V24.464ZM98.7287 18.78H99.6807V27.348C99.6807 27.6187 99.7554 27.8333 99.9047 27.992C100.054 28.1413 100.264 28.216 100.535 28.216C100.637 28.216 100.759 28.202 100.899 28.174C101.039 28.146 101.169 28.1087 101.291 28.062L101.459 28.832C101.281 28.9067 101.062 28.9673 100.801 29.014C100.549 29.0607 100.329 29.084 100.143 29.084C99.7041 29.084 99.3587 28.9627 99.1067 28.72C98.8547 28.468 98.7287 28.118 98.7287 27.67V18.78ZM104.335 29.14C103.99 29.14 103.668 29.084 103.369 28.972C103.08 28.8507 102.823 28.6873 102.599 28.482C102.385 28.2767 102.217 28.0387 102.095 27.768C101.974 27.488 101.913 27.1893 101.913 26.872C101.913 26.5547 101.988 26.2607 102.137 25.99C102.287 25.7193 102.497 25.486 102.767 25.29C103.038 25.094 103.36 24.9447 103.733 24.842C104.107 24.73 104.517 24.674 104.965 24.674C105.339 24.674 105.717 24.7067 106.099 24.772C106.482 24.8373 106.823 24.9307 107.121 25.052V24.394C107.121 23.75 106.939 23.2413 106.575 22.868C106.211 22.4853 105.707 22.294 105.063 22.294C104.69 22.294 104.307 22.3687 103.915 22.518C103.523 22.6673 103.127 22.882 102.725 23.162L102.389 22.532C103.332 21.8973 104.247 21.58 105.133 21.58C106.048 21.58 106.767 21.8367 107.289 22.35C107.812 22.8633 108.073 23.5727 108.073 24.478V27.768C108.073 28.0293 108.19 28.16 108.423 28.16V29C108.265 29.028 108.143 29.042 108.059 29.042C107.817 29.042 107.625 28.9813 107.485 28.86C107.355 28.7387 107.285 28.5707 107.275 28.356L107.247 27.782C106.911 28.2207 106.487 28.5567 105.973 28.79C105.469 29.0233 104.923 29.14 104.335 29.14ZM104.559 28.412C105.054 28.412 105.507 28.3187 105.917 28.132C106.337 27.9453 106.655 27.698 106.869 27.39C106.953 27.306 107.014 27.2173 107.051 27.124C107.098 27.0213 107.121 26.928 107.121 26.844V25.654C106.804 25.5327 106.473 25.4393 106.127 25.374C105.791 25.3087 105.446 25.276 105.091 25.276C104.419 25.276 103.873 25.416 103.453 25.696C103.033 25.976 102.823 26.3447 102.823 26.802C102.823 27.026 102.865 27.236 102.949 27.432C103.043 27.628 103.164 27.8007 103.313 27.95C103.472 28.09 103.659 28.202 103.873 28.286C104.088 28.37 104.317 28.412 104.559 28.412ZM110.372 31.24C110.447 31.2493 110.517 31.254 110.582 31.254C110.657 31.2633 110.727 31.268 110.792 31.268C110.96 31.268 111.091 31.2447 111.184 31.198C111.287 31.1513 111.385 31.0487 111.478 30.89C111.572 30.7313 111.674 30.5027 111.786 30.204C111.908 29.9053 112.076 29.504 112.29 29L109.112 21.706H110.092L112.794 28.118L115.3 21.706H116.21L112.43 31.114C112.328 31.3847 112.155 31.618 111.912 31.814C111.679 32.0193 111.357 32.122 110.946 32.122C110.853 32.122 110.764 32.1173 110.68 32.108C110.596 32.108 110.494 32.0987 110.372 32.08V31.24Z" fill="#999999"/>
</svg>
