<?xml version="1.0" encoding="utf-8"?>
<!-- Generator: Adobe Illustrator 19.0.0, SVG Export Plug-In . SVG Version: 6.00 Build 0)  -->
<svg version="1.1" id="Слой_1" xmlns="http://www.w3.org/2000/svg" xmlns:xlink="http://www.w3.org/1999/xlink" x="0px" y="0px"
	 viewBox="-249 363.9 95.7 115" style="enable-background:new -249 363.9 95.7 115;" xml:space="preserve">
<style type="text/css">
	.st0{clip-path:url(#SVGID_2_);}
	.st1{fill:#3E4348;}
</style>
<g>
	<g>
		<defs>
			<rect id="SVGID_1_" x="-249" y="363.9" width="100" height="115"/>
		</defs>
		<clipPath id="SVGID_2_">
			<use xlink:href="#SVGID_1_"  style="overflow:visible;"/>
		</clipPath>
		<g class="st0">
			<path class="st1" d="M-231.6,473.9c0,0.7-0.2,1.4-0.5,2.2c-0.2,0.7-0.7,1.2-1.2,1.4c-0.5,0.5-1.2,0.7-1.9,1
				c-0.7,0.2-1.4,0.2-2.4,0.2h-9.4v-18.9h10.1c0.7,0,1.2,0.2,1.7,0.5c0.5,0.2,1,0.7,1.4,1.2c0.5,0.5,0.7,1,1,1.4
				c0.2,0.5,0.2,1.2,0.2,1.7c0,1-0.2,1.7-0.7,2.6s-1.2,1.4-1.9,1.7c1.2,0.2,1.9,1,2.7,1.7C-232.1,471.7-231.6,472.7-231.6,473.9z
				 M-243.4,463.1v4.8h4.8c0.7,0,1.2-0.2,1.7-0.7s0.7-1,0.7-1.7s-0.2-1.2-0.5-1.7c-0.5-0.5-1-0.7-1.4-0.7L-243.4,463.1L-243.4,463.1
				z M-235.5,473.1c0-0.2,0-0.7-0.2-1c0-0.2-0.2-0.5-0.5-0.7c-0.2-0.2-0.5-0.5-0.7-0.5c0-0.2-0.5-0.2-0.7-0.2h-5.8v4.8h5.6
				c0.5,0,0.7,0,1,0c0.2-0.2,0.5-0.2,0.7-0.5c0.2-0.2,0.5-0.5,0.5-0.7C-235.5,473.9-235.5,473.6-235.5,473.1z"/>
			<path class="st1" d="M-222.7,478.9c-1.2,0-2.2-0.2-3.1-0.5c-1-0.2-1.7-1-2.4-1.4c-0.7-0.7-1.2-1.4-1.4-2.4s-0.5-1.7-0.5-2.6
				c0-1,0.2-1.9,0.5-2.9c0.2-1,0.7-1.7,1.4-2.4c0.7-0.7,1.4-1.2,2.4-1.7s1.9-0.5,3.1-0.5c1.2,0,2.2,0.2,3.1,0.5c1,0.5,1.7,1,2.4,1.7
				s1.2,1.4,1.4,2.4s0.5,1.7,0.5,2.6c0,0.2,0,0.5,0,0.7s0,0.5,0,0.5h-11.1c0,0.5,0.2,1,0.5,1.4c0.2,0.5,0.5,0.7,0.7,1.2
				c0.2,0.2,0.7,0.5,1.2,0.7s1,0.2,1.4,0.2c0.7,0,1.4-0.2,1.9-0.5c0.7-0.2,1-0.7,1.2-1.4l3.1,1c-0.5,1-1.4,1.9-2.4,2.6
				C-219.5,478.9-221.2,478.9-222.7,478.9z M-219.1,470.5c0-1-0.5-1.9-1.2-2.4c-0.7-0.7-1.4-1-2.4-1c-0.5,0-1,0-1.4,0.2
				c-0.5,0.2-0.7,0.5-1.2,0.7s-0.5,0.7-0.7,1.2s-0.2,1-0.2,1.4h7.2v-0.1H-219.1z"/>
			<path class="st1" d="M-200.2,478.7h-3.6v-7.9c0-1.2-0.2-1.9-0.7-2.4s-1-0.7-1.7-0.7c-0.2,0-0.7,0-1,0.2c-0.2,0.2-0.7,0.2-1,0.5
				c-0.2,0.2-0.7,0.5-1,1c-0.2,0.2-0.5,0.7-0.5,1.2v8.1h-3.6v-19.4h3.6v8.1c0.5-1,1.2-1.7,2.2-2.2s1.9-0.7,2.9-0.7s1.7,0.2,2.2,0.5
				c0.5,0.2,1,0.7,1.4,1.2c0.2,0.5,0.5,1.2,0.7,1.7c0.2,0.7,0.2,1.4,0.2,1.9L-200.2,478.7L-200.2,478.7L-200.2,478.7z"/>
			<path class="st1" d="M-197.1,462.9v-3.6h3.6v3.6H-197.1z M-197.1,478.7v-13.9h3.6v13.9H-197.1z"/>
			<path class="st1" d="M-177.3,478.7h-3.6v-7.9c0-1.2-0.2-1.9-0.5-2.4c-0.5-0.5-1-0.7-1.7-0.7c-0.2,0-0.7,0-1.2,0.2s-0.7,0.2-1,0.5
				c-0.2,0.2-0.7,0.5-1,1c-0.2,0.2-0.5,0.7-0.5,1.2v8.1h-3.6v-13.9h3.1v2.6c0.5-1,1.2-1.7,2.2-2.2s2.2-0.7,3.4-0.7
				c1,0,1.7,0.2,2.2,0.5c0.5,0.2,1,0.7,1.2,1.2s0.5,1.2,0.7,1.7c0,0.7,0.2,1.4,0.2,1.9v8.9H-177.3z"/>
			<path class="st1" d="M-168.4,478.9c-1,0-1.9-0.2-2.7-0.5c-0.7-0.5-1.4-1-2.2-1.4c-0.7-0.5-1-1.4-1.4-2.4c-0.2-1-0.5-1.9-0.5-2.9
				s0.2-1.9,0.5-2.9c0.2-1,0.7-1.7,1.2-2.4c0.5-0.7,1.2-1.2,1.9-1.4c0.7-0.5,1.7-0.5,2.4-0.5c1,0,1.9,0.2,2.9,0.7s1.4,1.2,1.9,1.9
				v-7.9h3.6v15.3c0,0.5,0,0.7,0.2,0.7s0.2,0.2,0.7,0.2v3.1c-0.7,0.2-1.2,0.2-1.4,0.2c-0.7,0-1.2-0.2-1.7-0.5
				c-0.5-0.2-0.7-0.7-0.7-1.2v-1c-0.5,1-1.2,1.4-2.2,1.9C-166.4,478.7-167.4,478.9-168.4,478.9z M-167.4,476c0.2,0,0.7,0,1-0.2
				c0.2,0,0.7-0.2,1-0.5c0.2-0.2,0.5-0.5,0.7-0.7s0.5-0.5,0.5-1v-3.3c-0.2-0.5-0.2-0.7-0.5-1c-0.2-0.2-0.5-0.7-1-1
				c-0.2-0.2-0.7-0.5-1-0.5c-0.2,0-0.7-0.2-1-0.2c-0.5,0-1,0-1.4,0.2c-0.5,0.2-0.7,0.5-1.2,1s-0.5,1-0.7,1.4c-0.2,0.5-0.2,1-0.2,1.7
				c0,0.5,0,1.2,0.2,1.7s0.5,1,0.7,1.2c0.2,0.5,0.7,0.7,1.2,1C-168.4,475.8-167.9,476-167.4,476z"/>
			<path class="st1" d="M-178.1,418.7h17.9c0.3,0,0.5-0.2,0.5-0.5V417l0,0v-16.8l0,0V399c0-0.3-0.2-0.5-0.5-0.5h-17.9
				c-1.1,0-2.9-0.2-2.9-2.1c0-1.1,0.5-2.1,2.5-2.1h17c0.3,0,0.5-0.2,0.5-0.5s-0.2-0.5-0.5-0.5h-19c-2,0-2.5-1.1-2.5-2.6s1-2,2.5-2
				h18.8c0.3,0,0.5-0.2,0.5-0.5s-0.2-0.5-0.5-0.5h-17.8c-1.3,0-2-0.8-2-2c0-1.5,1.3-2.1,2-2.1h18c0.3,0,0.5-0.2,0.5-0.5
				s-0.2-0.5-0.5-0.5h-13c-1.3,0-2.5-0.4-2.5-2.1s1.4-1.8,2.5-1.8h14.8v-15H-249v88.5h89.3v-14h-14.8c-1.1,0-2.5-0.2-2.5-1.8
				c0-1.7,1.2-2.1,2.5-2.1h13c0.3,0,0.5-0.2,0.5-0.5s-0.2-0.5-0.5-0.5h-18c-0.7,0-2-0.6-2-2.1c0-1.2,0.7-2,2-2h17.8
				c0.3,0,0.5-0.2,0.5-0.5s-0.2-0.5-0.5-0.5h-18.8c-1.5,0-2.5-0.5-2.5-2s0.5-2.6,2.5-2.6h19c0.3,0,0.5-0.2,0.5-0.5s-0.2-0.5-0.5-0.5
				h-17c-2,0-2.5-0.9-2.5-2.1C-181,418.9-179.2,418.7-178.1,418.7z"/>
			<path class="st1" d="M-159.7,400.5h-0.1c-0.1,0-0.1-0.1-0.1-0.2v-1.2c0-0.1-0.1-0.3-0.3-0.3h-17.9c-2.1,0-3.2-0.8-3.2-2.3
				c0-1.6,0.9-2.3,2.7-2.3h17c0.1,0,0.3-0.1,0.3-0.3s-0.1-0.3-0.3-0.3h-19c-2.5,0-2.8-1.6-2.8-2.8c0-1.5,0.9-2.3,2.8-2.3h18.8l0,0
				c0.1,0,0.1,0,0.2-0.1c0,0,0.1-0.1,0.1-0.2s0-0.1-0.1-0.2s-0.1-0.1-0.2-0.1h-17.8c-1.4,0-2.2-0.9-2.2-2.3c0-1.6,1.5-2.3,2.2-2.3
				h18c0.1,0,0.3-0.1,0.3-0.3s-0.1-0.3-0.3-0.3h-13c-2.2,0-2.7-1.3-2.7-2.3c0-2.1,2-2.1,2.7-2.1h15.4c1.6,0,3.4,1.1,3.4,2.8
				c0,1-0.1,1.3-0.2,1.5c0,0.1-0.1,0.1-0.1,0.2c0,0,0.1,0.2,0.2,0.3c0.3,0.4,0.8,1,0.8,2.4c0,1-0.3,1.5-0.5,1.9
				c-0.1,0.3-0.2,0.4-0.2,0.7c0,0.2,0.1,0.3,0.3,0.5c0.3,0.4,0.7,0.8,0.7,2.1c0,1.3-0.5,2-0.9,2.5c-0.2,0.3-0.4,0.5-0.4,0.6
				c0,0.2,0,0.2,0.1,0.4c0.1,0.2,0.3,0.5,0.3,1.5c-0.1,1-0.9,1.8-1.7,2.5l-2.1,2C-159.6,400.5-159.6,400.5-159.7,400.5z
				 M-178.5,394.7c-2,0-2.2,0.9-2.2,1.8c0,1.2,0.8,1.8,2.7,1.8h17.9c0.4,0,0.8,0.3,0.8,0.8v0.6l1.7-1.6c1-0.9,1.4-1.5,1.5-2.2
				c0-0.8-0.1-1.1-0.2-1.2c-0.1-0.1-0.1-0.3-0.1-0.6c0-0.3,0.2-0.6,0.5-0.9c0.4-0.5,0.8-1.1,0.8-2.2s-0.3-1.5-0.6-1.8
				c-0.2-0.2-0.4-0.4-0.4-0.8s0.1-0.6,0.3-0.9c0.2-0.4,0.4-0.8,0.4-1.6c0-1.3-0.4-1.8-0.7-2.1c-0.2-0.2-0.3-0.4-0.3-0.6
				s0.1-0.3,0.1-0.4c0.1-0.2,0.2-0.4,0.2-1.3c0-1.4-1.5-2.3-2.9-2.3h-15.4c-1.5,0-2.2,0.5-2.2,1.6c0,1.2,0.7,1.8,2.2,1.8h13
				c0.4,0,0.8,0.3,0.8,0.8s-0.3,0.8-0.8,0.8h-18c-0.6,0-1.7,0.5-1.7,1.8c0,1.1,0.6,1.8,1.7,1.8h17.8c0.2,0,0.4,0.1,0.5,0.2
				s0.2,0.3,0.2,0.5s-0.1,0.4-0.2,0.5s-0.3,0.2-0.5,0.2l0,0h-18.8c-1.6,0-2.3,0.5-2.3,1.8c0,1.6,0.7,2.3,2.3,2.3h19
				c0.4,0,0.8,0.3,0.8,0.8s-0.3,0.8-0.8,0.8h-17.1V394.7z"/>
			<path class="st1" d="M-159.1,438.6h-15.4c-0.7,0-2.7,0-2.7-2.1c0-1.1,0.5-2.3,2.7-2.3h13c0.1,0,0.3-0.1,0.3-0.3s-0.1-0.3-0.3-0.3
				h-18c-0.8,0-2.2-0.7-2.2-2.3c0-1.4,0.9-2.3,2.2-2.3h17.8c0.1,0,0.2-0.1,0.2-0.3c0-0.1,0-0.1-0.1-0.2c0,0-0.1-0.1-0.2-0.1l0,0
				h-18.8c-1.8,0-2.8-0.8-2.8-2.3c0-1.2,0.3-2.8,2.8-2.8h19c0.1,0,0.3-0.1,0.3-0.3s-0.1-0.3-0.3-0.3h-17c-1.8,0-2.7-0.8-2.7-2.3
				s1.1-2.3,3.2-2.3h17.9c0.1,0,0.3-0.1,0.3-0.3V417c0-0.1,0.1-0.2,0.1-0.2c0.1,0,0.2,0,0.3,0l2.1,2c0.8,0.7,1.5,1.5,1.7,2.5
				c0,1-0.1,1.3-0.3,1.5c-0.1,0.1-0.1,0.2-0.1,0.3c0,0.2,0.2,0.4,0.4,0.6c0.4,0.5,0.9,1.2,0.9,2.5s-0.4,1.8-0.7,2.1
				c-0.2,0.2-0.3,0.3-0.3,0.5c0,0.3,0.1,0.4,0.2,0.7c0.2,0.4,0.5,0.9,0.5,1.9c0,1.4-0.5,2.1-0.8,2.4c-0.1,0.1-0.2,0.2-0.2,0.3
				c0,0.1,0,0.1,0.1,0.2c0.1,0.2,0.2,0.5,0.2,1.5C-155.8,437.6-157.5,438.6-159.1,438.6z M-174.5,434.7c-1.5,0-2.2,0.6-2.2,1.8
				c0,1.1,0.7,1.6,2.2,1.6h15.4c1.4,0,2.9-0.9,2.9-2.3c0-0.9-0.1-1.2-0.2-1.3c0-0.1-0.1-0.2-0.1-0.4c0-0.2,0.1-0.4,0.3-0.6
				c0.3-0.3,0.7-0.9,0.7-2.1c0-0.8-0.2-1.3-0.4-1.6c-0.1-0.3-0.3-0.5-0.3-0.9s0.2-0.6,0.4-0.8c0.3-0.3,0.6-0.7,0.6-1.8
				c0-1.1-0.5-1.7-0.8-2.2c-0.2-0.3-0.5-0.6-0.5-0.9s0.1-0.4,0.1-0.6c0.1-0.2,0.2-0.4,0.2-1.3c-0.1-0.6-0.5-1.2-1.5-2.1l-1.7-1.6
				v0.6c0,0.4-0.3,0.8-0.8,0.8h-17.9c-1.8,0-2.7,0.6-2.7,1.8c0,0.9,0.3,1.8,2.2,1.8h17c0.4,0,0.8,0.3,0.8,0.8s-0.3,0.8-0.8,0.8h-19
				c-1.6,0-2.3,0.7-2.3,2.3c0,1.2,0.7,1.8,2.3,1.8h18.8l0,0c0.2,0,0.4,0.1,0.5,0.2s0.2,0.3,0.2,0.5c0,0.4-0.3,0.7-0.7,0.8h-17.8
				c-1.1,0-1.7,0.7-1.7,1.8c0,1.3,1.1,1.8,1.7,1.8h18c0.4,0,0.8,0.3,0.8,0.8s-0.3,0.8-0.8,0.8h-12.9V434.7z"/>
		</g>
	</g>
</g>
</svg>
