<?xml version="1.0" encoding="utf-8"?><svg xmlns="http://www.w3.org/2000/svg" xmlns:xlink="http://www.w3.org/1999/xlink"><symbol viewBox="0 0 112 34" id="app-store" xmlns="http://www.w3.org/2000/svg"><path d="M18.7 5.424C19.995 3.886 20.643 1.943 20.481 0c-1.943.162-3.724 1.133-4.938 2.59a7.389 7.389 0 0 0-1.862 5.262c1.943.162 3.886-.971 5.019-2.428zm4.29 12.628c0-4.29 3.481-6.395 3.643-6.476-1.457-2.024-3.723-3.238-6.152-3.319-2.672-.324-5.181 1.538-6.476 1.538-1.376 0-3.4-1.538-5.667-1.457-2.833 0-5.424 1.62-6.962 4.21-2.914 5.18-.728 12.952 2.186 17.161C4.857 31.733 6.638 34 8.905 34c2.104-.081 2.914-1.376 5.505-1.376 2.59 0 3.319 1.376 5.666 1.295 2.267 0 3.724-2.105 5.1-4.128 1.62-2.43 2.348-4.696 2.348-4.858 0 0-4.453-1.7-4.534-6.88zM38.112 8.96c0-.597.102-1.19.308-1.778.215-.597.523-1.13.924-1.596a4.62 4.62 0 0 1 1.484-1.134c.588-.299 1.255-.448 2.002-.448.887 0 1.642.2 2.268.602a3.65 3.65 0 0 1 1.4 1.568l-.77.476a2.868 2.868 0 0 0-.588-.826 3.097 3.097 0 0 0-.728-.546 2.928 2.928 0 0 0-.812-.294 3.627 3.627 0 0 0-.826-.098c-.598 0-1.125.121-1.582.364-.458.243-.845.56-1.162.952a4.218 4.218 0 0 0-.7 1.33c-.159.485-.238.98-.238 1.484 0 .55.093 1.078.28 1.582.196.504.457.952.784 1.344.336.383.728.69 1.176.924.457.224.952.336 1.484.336.28 0 .564-.033.854-.098a3.539 3.539 0 0 0 1.624-.91c.233-.233.43-.513.588-.84l.812.42a3.12 3.12 0 0 1-.672.994 4.54 4.54 0 0 1-.966.714 4.789 4.789 0 0 1-1.134.448c-.392.103-.78.154-1.162.154-.681 0-1.307-.15-1.876-.448a4.973 4.973 0 0 1-1.47-1.162 5.66 5.66 0 0 1-.966-1.638 5.452 5.452 0 0 1-.336-1.876zm14.386-2.254h1.064l-2.758 3.528L53.798 14h-1.063l-2.576-3.332h-1.036V14h-.939V6.706h.938v3.22h.953l2.422-3.22zm4.22 7.434c-.345 0-.667-.056-.966-.168a2.64 2.64 0 0 1-.77-.49 2.254 2.254 0 0 1-.504-.714 2.228 2.228 0 0 1-.182-.896c0-.317.075-.611.224-.882.15-.27.36-.504.63-.7a2.99 2.99 0 0 1 .966-.448 4.274 4.274 0 0 1 1.232-.168c.374 0 .752.033 1.134.098.383.065.724.159 1.022.28v-.658c0-.644-.182-1.153-.546-1.526-.364-.383-.868-.574-1.512-.574-.373 0-.756.075-1.148.224-.392.15-.788.364-1.19.644l-.336-.63c.943-.635 1.858-.952 2.744-.952.915 0 1.634.257 2.156.77.523.513.784 1.223.784 2.128v3.29c0 .261.117.392.35.392V14a2.27 2.27 0 0 1-.364.042c-.242 0-.434-.06-.574-.182-.13-.121-.2-.29-.21-.504l-.028-.574c-.336.439-.76.775-1.274 1.008-.504.233-1.05.35-1.638.35zm.224-.728c.495 0 .948-.093 1.358-.28.42-.187.738-.434.952-.742a.799.799 0 0 0 .182-.266.686.686 0 0 0 .07-.28v-1.19a5.794 5.794 0 0 0-2.03-.378c-.672 0-1.218.14-1.638.42-.42.28-.63.649-.63 1.106 0 .224.042.434.126.63.094.196.215.369.364.518a1.876 1.876 0 0 0 1.246.462zm10.19.588h-.951v-3.038a4.12 4.12 0 0 1-.756.21 7.324 7.324 0 0 1-1.022.056c-.439 0-.807-.065-1.106-.196a1.966 1.966 0 0 1-.714-.532 2.086 2.086 0 0 1-.406-.798 4.458 4.458 0 0 1-.112-1.022V6.706h.938v1.806c0 .69.135 1.18.406 1.47.27.28.658.42 1.162.42.392 0 .723-.037.994-.112.27-.084.476-.182.616-.294v-3.29h.952V14zm3.956.14a2.73 2.73 0 0 1-.966-.168 2.641 2.641 0 0 1-.77-.49 2.254 2.254 0 0 1-.505-.714 2.23 2.23 0 0 1-.181-.896c0-.317.074-.611.224-.882.149-.27.359-.504.63-.7a2.97 2.97 0 0 1 .966-.448 4.274 4.274 0 0 1 1.231-.168c.374 0 .752.033 1.135.098.382.065.723.159 1.022.28v-.658c0-.644-.182-1.153-.546-1.526-.365-.383-.868-.574-1.513-.574-.373 0-.755.075-1.147.224-.393.15-.79.364-1.19.644l-.337-.63c.943-.635 1.858-.952 2.744-.952.915 0 1.634.257 2.156.77.523.513.785 1.223.785 2.128v3.29c0 .261.116.392.35.392V14a2.27 2.27 0 0 1-.365.042c-.242 0-.434-.06-.574-.182-.13-.121-.2-.29-.21-.504L74 12.782c-.335.439-.76.775-1.273 1.008-.504.233-1.05.35-1.638.35zm.224-.728c.494 0 .947-.093 1.358-.28.42-.187.737-.434.951-.742a.797.797 0 0 0 .183-.266.685.685 0 0 0 .07-.28v-1.19a5.792 5.792 0 0 0-2.03-.378c-.672 0-1.218.14-1.638.42-.42.28-.63.649-.63 1.106 0 .224.042.434.126.63.093.196.214.369.364.518.158.14.345.252.56.336.214.084.443.126.685.126zM79.42 14h-.924V7.532h-2.562v-.826h6.048v.826H79.42V14zm3.915-7.294h.938v2.59h1.582a2.9 2.9 0 0 1 .952.154c.298.103.56.252.784.448.224.196.401.443.532.742.13.29.196.625.196 1.008s-.066.723-.196 1.022c-.13.29-.308.532-.532.728a2.325 2.325 0 0 1-.784.448 2.908 2.908 0 0 1-.952.154h-2.52V6.706zm2.52 6.482c.485 0 .859-.135 1.12-.406.27-.28.406-.658.406-1.134 0-.476-.136-.85-.406-1.12-.27-.28-.644-.42-1.12-.42h-1.582v3.08h1.582zm6.983-2.856c0-.513.089-.999.266-1.456.178-.457.425-.854.742-1.19a3.527 3.527 0 0 1 1.162-.812 3.663 3.663 0 0 1 1.484-.294c.691 0 1.293.159 1.806.476.514.308.901.728 1.162 1.26l-.924.294a2.158 2.158 0 0 0-.868-.868 2.353 2.353 0 0 0-1.218-.322c-.373 0-.723.075-1.05.224A2.739 2.739 0 0 0 94 9.17c-.13.355-.196.742-.196 1.162 0 .41.07.798.21 1.162.14.364.332.681.574.952.243.261.523.471.84.63a2.464 2.464 0 0 0 1.722.126c.234-.065.448-.154.644-.266a2.46 2.46 0 0 0 .504-.406c.14-.15.238-.308.294-.476l.938.28a2.476 2.476 0 0 1-.448.728 3.27 3.27 0 0 1-.7.574c-.261.159-.555.28-.882.364-.317.093-.648.14-.994.14a3.627 3.627 0 0 1-1.47-.294 3.709 3.709 0 0 1-1.162-.826 4.031 4.031 0 0 1-.77-1.218 4.03 4.03 0 0 1-.266-1.47zM41.85 20.06h.827l4.13 9.94H45.77l-1.288-3.108h-4.466L38.742 30h-1.05l4.158-9.94zm2.409 6.062l-2.002-4.914-2.03 4.914h4.032zm7.5 4.018c-.615 0-1.161-.154-1.637-.462a3.833 3.833 0 0 1-1.134-1.19v4.494h-.952V22.706h.854v1.414a3.47 3.47 0 0 1 1.162-1.106 2.93 2.93 0 0 1 1.554-.434 3 3 0 0 1 1.386.322c.42.205.784.485 1.092.84.308.345.546.747.714 1.204.177.457.266.929.266 1.414 0 .513-.08.999-.238 1.456a3.645 3.645 0 0 1-.686 1.204c-.29.345-.64.62-1.05.826a2.99 2.99 0 0 1-1.33.294zm-.265-.84a2.24 2.24 0 0 0 1.064-.252c.326-.168.602-.387.826-.658.233-.28.41-.593.532-.938a3.35 3.35 0 0 0 .182-1.092 3.09 3.09 0 0 0-.784-2.058 2.702 2.702 0 0 0-.868-.644 2.402 2.402 0 0 0-1.064-.238c-.243 0-.5.051-.77.154a2.983 2.983 0 0 0-.742.392c-.224.159-.42.35-.588.574a1.539 1.539 0 0 0-.294.686v2.24c.112.261.252.504.42.728.177.224.373.42.588.588.224.159.462.285.714.378.252.093.513.14.784.14zm8.906.84c-.616 0-1.162-.154-1.638-.462a3.83 3.83 0 0 1-1.134-1.19v4.494h-.952V22.706h.854v1.414a3.468 3.468 0 0 1 1.162-1.106 2.93 2.93 0 0 1 1.554-.434 3 3 0 0 1 1.386.322c.42.205.784.485 1.092.84.308.345.546.747.714 1.204.178.457.266.929.266 1.414 0 .513-.079.999-.238 1.456a3.649 3.649 0 0 1-.686 1.204c-.289.345-.639.62-1.05.826a2.99 2.99 0 0 1-1.33.294zm-.266-.84c.392 0 .747-.084 1.064-.252.327-.168.602-.387.826-.658.234-.28.411-.593.532-.938.122-.355.182-.719.182-1.092a3.093 3.093 0 0 0-.784-2.058 2.703 2.703 0 0 0-.868-.644 2.403 2.403 0 0 0-1.064-.238 2.17 2.17 0 0 0-.77.154 2.98 2.98 0 0 0-.742.392c-.224.159-.42.35-.588.574a1.537 1.537 0 0 0-.294.686v2.24c.112.261.252.504.42.728.178.224.374.42.588.588.224.159.462.285.714.378.252.093.514.14.784.14zm14.757-7.378c-.28-.317-.653-.574-1.12-.77-.466-.196-.998-.294-1.596-.294-.877 0-1.516.168-1.918.504-.401.327-.602.775-.602 1.344 0 .299.052.546.154.742.112.187.28.35.504.49.224.14.509.261.854.364.355.103.77.205 1.246.308.532.112 1.008.238 1.428.378.43.14.794.317 1.092.532.299.205.528.457.686.756.159.299.238.672.238 1.12 0 .457-.088.854-.266 1.19a2.373 2.373 0 0 1-.742.84 3.41 3.41 0 0 1-1.134.504 6.302 6.302 0 0 1-1.442.154c-1.54 0-2.87-.48-3.99-1.442l.49-.798c.178.187.388.364.63.532.252.168.528.317.826.448.308.121.635.22.98.294.346.065.71.098 1.092.098.794 0 1.41-.14 1.848-.42.448-.29.672-.723.672-1.302 0-.308-.065-.565-.196-.77a1.5 1.5 0 0 0-.56-.546 3.824 3.824 0 0 0-.938-.406 19.821 19.821 0 0 0-1.302-.336c-.522-.121-.98-.247-1.372-.378a3.658 3.658 0 0 1-.994-.49 1.992 1.992 0 0 1-.616-.7c-.13-.28-.196-.62-.196-1.022 0-.457.084-.863.252-1.218.178-.364.425-.663.742-.896a3.296 3.296 0 0 1 1.12-.546 4.89 4.89 0 0 1 1.428-.196c.663 0 1.251.103 1.764.308.523.196.994.476 1.414.84l-.476.784zm5.916 7.728a4.59 4.59 0 0 1-.252.112 4.324 4.324 0 0 1-.84.266 2.715 2.715 0 0 1-.56.056c-.205 0-.401-.028-.588-.084a1.436 1.436 0 0 1-.49-.252 1.348 1.348 0 0 1-.462-1.064v-5.222h-1.008v-.756h1.008v-2.464h.952v2.464h1.68v.756h-1.68v4.956c.019.27.112.471.28.602.178.121.378.182.602.182.27 0 .509-.042.714-.126a3.55 3.55 0 0 0 .392-.196l.252.77zm4.12.49a3.53 3.53 0 0 1-1.456-.294 3.758 3.758 0 0 1-1.148-.826 3.781 3.781 0 0 1-.742-1.204 3.954 3.954 0 0 1-.266-1.442c0-.513.089-.999.266-1.456a3.99 3.99 0 0 1 .756-1.204c.327-.345.71-.62 1.148-.826a3.36 3.36 0 0 1 1.442-.308c.523 0 1.003.103 1.442.308.448.205.83.48 1.148.826.327.345.579.747.756 1.204.187.457.28.943.28 1.456 0 .504-.089.985-.266 1.442-.177.457-.43.859-.756 1.204-.317.345-.7.62-1.148.826a3.53 3.53 0 0 1-1.456.294zm-2.646-3.752c0 .41.07.793.21 1.148.14.345.327.653.56.924.243.261.523.467.84.616.327.15.672.224 1.036.224a2.37 2.37 0 0 0 1.022-.224 2.87 2.87 0 0 0 .854-.63 3.09 3.09 0 0 0 .784-2.086c0-.401-.07-.78-.21-1.134a2.88 2.88 0 0 0-.574-.938 2.57 2.57 0 0 0-.854-.63 2.253 2.253 0 0 0-1.022-.238c-.364 0-.705.08-1.022.238-.317.15-.597.36-.84.63s-.434.588-.574.952c-.14.355-.21.737-.21 1.148zm11.504-2.842c-.644.019-1.204.196-1.68.532a2.683 2.683 0 0 0-1.008 1.386V30h-.952v-7.294h.896v1.75c.27-.56.635-.999 1.092-1.316a2.531 2.531 0 0 1 1.47-.476c.075 0 .135.005.182.014v.868zm4.05 6.594a3.627 3.627 0 0 1-1.47-.294 3.756 3.756 0 0 1-1.149-.826 4.027 4.027 0 0 1-.77-1.218 4.029 4.029 0 0 1-.266-1.47c0-.513.089-.994.266-1.442.187-.457.439-.854.756-1.19a3.526 3.526 0 0 1 1.162-.812 3.453 3.453 0 0 1 1.456-.308c.532 0 1.017.103 1.456.308.448.196.831.467 1.148.812a3.83 3.83 0 0 1 1.008 2.618v.224a.537.537 0 0 1-.014.154h-6.244c.028.392.117.756.266 1.092.159.327.36.611.602.854.243.243.518.434.826.574a2.62 2.62 0 0 0 1.708.098 2.83 2.83 0 0 0 .644-.266 2.51 2.51 0 0 0 .532-.406c.159-.168.28-.35.364-.546l.826.224c-.112.27-.27.518-.476.742a3.616 3.616 0 0 1-.714.574c-.27.159-.57.28-.896.364-.327.093-.667.14-1.022.14zm2.687-4.172a2.795 2.795 0 0 0-.28-1.064 2.714 2.714 0 0 0-.588-.84 2.503 2.503 0 0 0-.826-.546 2.518 2.518 0 0 0-.994-.196 2.663 2.663 0 0 0-1.848.742 2.847 2.847 0 0 0-.574.84c-.14.327-.224.681-.252 1.064h5.362z"/></symbol><symbol viewBox="0 0 18 11" id="arrow-menu" xmlns="http://www.w3.org/2000/svg"><path d="M.25 5.737c0 .131.082.29.164.368l4.375 4.473c.191.21.547.237.766.027a.519.519 0 0 0 .027-.737L2.055 6.263h15.148a.54.54 0 0 0 .547-.526.538.538 0 0 0-.547-.526H2.055l3.5-3.579c.191-.21.191-.552-.028-.737a.543.543 0 0 0-.765.027L.387 5.395c-.11.079-.137.21-.137.342z"/></symbol><symbol viewBox="0 0 18.164 13.922" id="check" xmlns="http://www.w3.org/2000/svg"><path d="M17.836 3.516L9.352 12l-1.594 1.594a1.136 1.136 0 0 1-1.594 0L4.57 12 .328 7.758a1.136 1.136 0 0 1 0-1.594L1.922 4.57a1.136 1.136 0 0 1 1.594 0l3.445 3.457L14.649.328a1.132 1.132 0 0 1 1.593 0l1.594 1.594a1.136 1.136 0 0 1 0 1.594z"/></symbol><symbol viewBox="0 0 22.012 17.295" id="envelope" xmlns="http://www.w3.org/2000/svg"><path d="M19.911 5.331c-1.916 1.327-3.845 2.653-5.748 3.992-.799.553-2.15 1.683-3.145 1.683h-.025c-.995 0-2.346-1.13-3.145-1.683-1.903-1.339-3.831-2.665-5.735-3.992C1.241 4.741 0 3.354 0 2.235 0 1.032.651 0 1.965 0h18.082c1.068 0 1.965.884 1.965 1.965 0 1.376-1.02 2.617-2.101 3.366zm2.101 9.999c0 1.08-.885 1.965-1.965 1.965H1.965A1.971 1.971 0 0 1 0 15.33V5.577c.369.405.786.762 1.241 1.069 2.039 1.388 4.103 2.776 6.104 4.237 1.032.762 2.31 1.695 3.648 1.695h.025c1.339 0 2.616-.934 3.647-1.695 2.003-1.449 4.066-2.85 6.117-4.237a7.28 7.28 0 0 0 1.229-1.069v9.753z"/></symbol><symbol viewBox="0 0 117 33" id="google-play" xmlns="http://www.w3.org/2000/svg"><path d="M6.081 2.486c-1.216-.648-2.432-.648-3.649 0l13.379 12.487 4.46-4.54L6.08 2.485zM.486 3.622A3.766 3.766 0 0 0 0 5.486v23.109c0 .648.162 1.216.486 1.783l13.298-13.946L.486 3.622zm25.136 10.54l-4.379-2.432-5.027 4.946 6.081 5.594 3.325-1.784a3.628 3.628 0 0 0 1.946-3.243c0-1.216-.73-2.432-1.946-3.08zm-10.217 3.243L1.622 31.513a3.974 3.974 0 0 0 3.81 0l15.65-8.675-5.677-5.433zM38.588 7.96c0-.597.103-1.19.308-1.778.215-.597.523-1.13.924-1.596a4.62 4.62 0 0 1 1.484-1.134c.588-.299 1.255-.448 2.002-.448.887 0 1.643.2 2.268.602a3.65 3.65 0 0 1 1.4 1.568l-.77.476a2.868 2.868 0 0 0-.588-.826 3.097 3.097 0 0 0-.728-.546 2.928 2.928 0 0 0-.812-.294 3.627 3.627 0 0 0-.826-.098c-.597 0-1.125.121-1.582.364-.457.243-.845.56-1.162.952a4.218 4.218 0 0 0-.7 1.33c-.159.485-.238.98-.238 1.484 0 .55.093 1.078.28 1.582.196.504.457.952.784 1.344.336.383.728.69 1.176.924.457.224.952.336 1.484.336.28 0 .565-.033.854-.098a3.539 3.539 0 0 0 1.624-.91c.233-.233.43-.513.588-.84l.812.42a3.12 3.12 0 0 1-.672.994 4.54 4.54 0 0 1-.966.714 4.789 4.789 0 0 1-1.134.448c-.392.103-.78.154-1.162.154-.681 0-1.307-.15-1.876-.448a4.973 4.973 0 0 1-1.47-1.162 5.66 5.66 0 0 1-.966-1.638 5.452 5.452 0 0 1-.336-1.876zm14.386-2.254h1.064L51.28 9.234 54.276 13h-1.064l-2.576-3.332H49.6V13h-.938V5.706h.938v3.22h.952l2.422-3.22zm4.22 7.434a2.73 2.73 0 0 1-.966-.168 2.641 2.641 0 0 1-.77-.49 2.258 2.258 0 0 1-.503-.714 2.23 2.23 0 0 1-.182-.896 1.8 1.8 0 0 1 .223-.882c.15-.27.36-.504.63-.7.271-.196.593-.345.967-.448a4.275 4.275 0 0 1 1.231-.168c.374 0 .752.033 1.135.098.382.065.723.159 1.021.28v-.658c0-.644-.181-1.153-.545-1.526-.364-.383-.869-.574-1.513-.574-.373 0-.755.075-1.147.224-.392.15-.79.364-1.19.644l-.337-.63c.943-.635 1.858-.952 2.745-.952.914 0 1.633.257 2.155.77.523.513.784 1.223.784 2.128v3.29c0 .261.117.392.35.392V13c-.158.028-.28.042-.363.042-.243 0-.434-.06-.575-.182-.13-.121-.2-.29-.21-.504l-.028-.574a3.29 3.29 0 0 1-1.273 1.008 3.86 3.86 0 0 1-1.639.35zm.224-.728c.495 0 .948-.093 1.358-.28.42-.187.738-.434.952-.742a.797.797 0 0 0 .182-.266.685.685 0 0 0 .07-.28v-1.19a5.79 5.79 0 0 0-2.03-.378c-.672 0-1.218.14-1.638.42-.42.28-.63.649-.63 1.106 0 .224.042.434.127.63.093.196.214.369.364.518.158.14.345.252.56.336.214.084.443.126.686.126zM67.61 13h-.952V9.962a4.12 4.12 0 0 1-.756.21 7.324 7.324 0 0 1-1.022.056c-.439 0-.807-.065-1.106-.196a1.966 1.966 0 0 1-.714-.532 2.086 2.086 0 0 1-.406-.798 4.458 4.458 0 0 1-.112-1.022V5.706h.938v1.806c0 .69.136 1.18.406 1.47.27.28.658.42 1.162.42.392 0 .724-.037.994-.112.27-.084.476-.182.616-.294v-3.29h.952V13zm3.955.14a2.73 2.73 0 0 1-.966-.168 2.641 2.641 0 0 1-.77-.49 2.254 2.254 0 0 1-.504-.714 2.23 2.23 0 0 1-.182-.896c0-.317.074-.611.224-.882.149-.27.359-.504.63-.7a2.97 2.97 0 0 1 .966-.448 4.274 4.274 0 0 1 1.232-.168c.373 0 .751.033 1.134.098.382.065.723.159 1.022.28v-.658c0-.644-.182-1.153-.546-1.526-.364-.383-.868-.574-1.512-.574-.374 0-.756.075-1.148.224-.392.15-.789.364-1.19.644l-.336-.63c.942-.635 1.857-.952 2.744-.952.914 0 1.633.257 2.156.77.522.513.784 1.223.784 2.128v3.29c0 .261.116.392.35.392V13a2.27 2.27 0 0 1-.364.042c-.243 0-.434-.06-.574-.182-.131-.121-.201-.29-.21-.504l-.028-.574a3.292 3.292 0 0 1-1.274 1.008c-.504.233-1.05.35-1.638.35zm.224-.728c.494 0 .947-.093 1.358-.28.42-.187.737-.434.952-.742a.797.797 0 0 0 .182-.266.685.685 0 0 0 .07-.28v-1.19a5.792 5.792 0 0 0-2.03-.378c-.672 0-1.218.14-1.638.42-.42.28-.63.649-.63 1.106 0 .224.042.434.126.63.093.196.214.369.364.518.158.14.345.252.56.336.214.084.443.126.686.126zm8.11.588h-.925V6.532h-2.562v-.826h6.048v.826h-2.562V13zm3.914-7.294h.938v2.59h1.582a2.9 2.9 0 0 1 .952.154c.299.103.56.252.784.448.224.196.401.443.532.742.13.29.196.625.196 1.008s-.065.723-.196 1.022c-.13.29-.308.532-.532.728a2.324 2.324 0 0 1-.784.448 2.907 2.907 0 0 1-.952.154h-2.52V5.706zm2.52 6.482c.485 0 .859-.135 1.12-.406.27-.28.406-.658.406-1.134 0-.476-.135-.85-.406-1.12-.27-.28-.644-.42-1.12-.42H84.75v3.08h1.582zm6.984-2.856c0-.513.088-.999.266-1.456.177-.457.424-.854.742-1.19a3.527 3.527 0 0 1 1.162-.812 3.663 3.663 0 0 1 1.483-.294c.691 0 1.293.159 1.806.476.514.308.901.728 1.162 1.26l-.924.294a2.158 2.158 0 0 0-.868-.868 2.353 2.353 0 0 0-1.218-.322c-.373 0-.723.075-1.05.224a2.739 2.739 0 0 0-1.4 1.526c-.13.355-.196.742-.196 1.162 0 .41.07.798.21 1.162.14.364.332.681.575.952.242.261.522.471.84.63a2.464 2.464 0 0 0 1.721.126 2.81 2.81 0 0 0 .645-.266 2.46 2.46 0 0 0 .503-.406c.14-.15.238-.308.294-.476l.939.28a2.488 2.488 0 0 1-.448.728 3.32 3.32 0 0 1-.7.574c-.262.159-.556.28-.882.364-.318.093-.65.14-.994.14a3.627 3.627 0 0 1-1.47-.294 3.709 3.709 0 0 1-1.162-.826 4.031 4.031 0 0 1-.77-1.218 4.03 4.03 0 0 1-.266-1.47zM46.428 27.544c-.924 1.017-1.988 1.526-3.192 1.526a4.05 4.05 0 0 1-1.862-.434 5.014 5.014 0 0 1-1.47-1.148 5.518 5.518 0 0 1-.966-1.61 5.147 5.147 0 0 1-.35-1.862c0-.663.112-1.297.336-1.904a5.105 5.105 0 0 1 .966-1.596 4.57 4.57 0 0 1 1.456-1.106c.56-.28 1.171-.42 1.834-.42.485 0 .929.056 1.33.168.401.103.756.252 1.064.448.317.187.588.415.812.686.233.261.43.55.588.868l-.756.504c-.327-.616-.751-1.069-1.274-1.358-.523-.29-1.115-.434-1.778-.434a3.2 3.2 0 0 0-1.498.35 3.653 3.653 0 0 0-1.134.938 4.235 4.235 0 0 0-.714 1.33 4.756 4.756 0 0 0-.252 1.54c0 .56.093 1.092.28 1.596.196.504.462.947.798 1.33.336.373.728.672 1.176.896.457.224.952.336 1.484.336.57 0 1.11-.13 1.624-.392.523-.27 1.022-.695 1.498-1.274V24.87h-2.212v-.756h3.038V29h-.826v-1.456zm5.752 1.596a3.53 3.53 0 0 1-1.456-.294 3.757 3.757 0 0 1-1.148-.826 3.78 3.78 0 0 1-.742-1.204 3.954 3.954 0 0 1-.267-1.442 4 4 0 0 1 .267-1.456 3.99 3.99 0 0 1 .755-1.204c.327-.345.71-.62 1.148-.826a3.36 3.36 0 0 1 1.442-.308 3.36 3.36 0 0 1 1.442.308c.448.205.831.48 1.148.826.327.345.58.747.757 1.204.186.457.28.943.28 1.456 0 .504-.09.985-.267 1.442a3.645 3.645 0 0 1-.756 1.204c-.317.345-.7.62-1.148.826a3.53 3.53 0 0 1-1.456.294zm-2.647-3.752c0 .41.07.793.21 1.148.14.345.327.653.56.924.243.261.523.467.84.616.327.15.672.224 1.036.224a2.37 2.37 0 0 0 1.023-.224 2.86 2.86 0 0 0 .854-.63 3.09 3.09 0 0 0 .784-2.086c0-.401-.07-.78-.21-1.134a2.88 2.88 0 0 0-.575-.938 2.572 2.572 0 0 0-.853-.63 2.253 2.253 0 0 0-1.023-.238c-.364 0-.704.08-1.022.238-.317.15-.597.36-.84.63a3.05 3.05 0 0 0-.574.952c-.14.355-.21.737-.21 1.148zm10.973 3.752a3.53 3.53 0 0 1-1.456-.294 3.756 3.756 0 0 1-1.148-.826 3.778 3.778 0 0 1-.742-1.204 3.952 3.952 0 0 1-.266-1.442c0-.513.088-.999.266-1.456.186-.457.438-.859.756-1.204.326-.345.709-.62 1.148-.826a3.36 3.36 0 0 1 1.442-.308 3.36 3.36 0 0 1 1.442.308c.448.205.83.48 1.148.826.326.345.578.747.756 1.204.186.457.28.943.28 1.456 0 .504-.089.985-.266 1.442-.178.457-.43.859-.756 1.204-.318.345-.7.62-1.148.826a3.53 3.53 0 0 1-1.456.294zm-2.646-3.752c0 .41.07.793.21 1.148.14.345.326.653.56.924a2.7 2.7 0 0 0 .84.616c.326.15.672.224 1.036.224a2.37 2.37 0 0 0 1.022-.224 2.86 2.86 0 0 0 .854-.63 3.093 3.093 0 0 0 .784-2.086c0-.401-.07-.78-.21-1.134a2.881 2.881 0 0 0-.574-.938 2.573 2.573 0 0 0-.854-.63 2.254 2.254 0 0 0-1.022-.238c-.364 0-.705.08-1.022.238-.318.15-.598.36-.84.63a3.05 3.05 0 0 0-.574.952c-.14.355-.21.737-.21 1.148zm10.79 3.71c-.504 0-.966-.103-1.386-.308a3.78 3.78 0 0 1-1.078-.84 3.89 3.89 0 0 1-.7-1.19 3.916 3.916 0 0 1-.252-1.386c0-.504.08-.985.238-1.442.168-.467.401-.873.7-1.218.299-.345.653-.62 1.064-.826.42-.205.882-.308 1.386-.308.625 0 1.166.159 1.624.476.457.308.85.7 1.176 1.176v-1.526h.854v7.322c0 .504-.098.947-.294 1.33a2.748 2.748 0 0 1-.77.98 3.195 3.195 0 0 1-1.134.588c-.43.13-.887.196-1.372.196-.84 0-1.517-.15-2.03-.448a3.58 3.58 0 0 1-1.246-1.204l.588-.462c.29.467.672.807 1.148 1.022.476.224.99.336 1.54.336.355 0 .69-.051 1.008-.154.317-.093.593-.238.826-.434.242-.187.434-.43.574-.728.14-.29.21-.63.21-1.022v-1.442a3.04 3.04 0 0 1-1.148 1.106c-.486.27-.994.406-1.526.406zm.266-.798c.28 0 .555-.051.826-.154a2.76 2.76 0 0 0 1.288-.994 1.79 1.79 0 0 0 .294-.658V24.24a2.916 2.916 0 0 0-1.75-1.68 2.202 2.202 0 0 0-.77-.14c-.41 0-.78.089-1.106.266a2.568 2.568 0 0 0-.812.672c-.224.28-.397.597-.518.952a3.56 3.56 0 0 0-.168 1.078 3.093 3.093 0 0 0 .784 2.058c.252.261.541.471.868.63.326.15.681.224 1.064.224zm5.504-9.52h.952v8.568c0 .27.075.485.224.644.15.15.36.224.63.224a2.4 2.4 0 0 0 .756-.154l.168.77a3.133 3.133 0 0 1-.658.182c-.252.047-.471.07-.658.07-.439 0-.784-.121-1.036-.364-.252-.252-.378-.602-.378-1.05v-8.89zm6.923 10.36a3.627 3.627 0 0 1-1.47-.294 3.756 3.756 0 0 1-1.148-.826 4.027 4.027 0 0 1-.77-1.218 4.029 4.029 0 0 1-.266-1.47c0-.513.088-.994.266-1.442a3.79 3.79 0 0 1 .756-1.19 3.526 3.526 0 0 1 1.162-.812 3.453 3.453 0 0 1 1.456-.308c.532 0 1.017.103 1.456.308.448.196.83.467 1.148.812a3.845 3.845 0 0 1 1.008 2.618v.224a.565.565 0 0 1-.014.154h-6.244c.028.392.116.756.266 1.092.158.327.359.611.602.854.242.243.518.434.826.574a2.62 2.62 0 0 0 1.708.098 2.83 2.83 0 0 0 .644-.266 2.51 2.51 0 0 0 .532-.406c.158-.168.28-.35.364-.546l.826.224c-.112.27-.271.518-.476.742a3.635 3.635 0 0 1-.714.574c-.271.159-.57.28-.896.364a3.72 3.72 0 0 1-1.022.14zm2.688-4.172a2.802 2.802 0 0 0-.28-1.064 2.721 2.721 0 0 0-.588-.84 2.503 2.503 0 0 0-.826-.546 2.518 2.518 0 0 0-.994-.196 2.663 2.663 0 0 0-1.848.742 2.847 2.847 0 0 0-.574.84c-.14.327-.224.681-.252 1.064h5.362zM90.174 29v-9.94h4.116c.43 0 .821.093 1.176.28.364.177.676.415.938.714.261.29.466.62.616.994.15.373.224.751.224 1.134 0 .41-.07.807-.21 1.19a3.22 3.22 0 0 1-.588.994 2.93 2.93 0 0 1-.91.7 2.506 2.506 0 0 1-1.162.266h-3.22V29h-.98zm.98-4.536h3.178c.29 0 .55-.06.784-.182a2.03 2.03 0 0 0 .616-.504c.168-.215.298-.457.392-.728.093-.28.14-.57.14-.868 0-.308-.056-.597-.168-.868a2.187 2.187 0 0 0-.434-.728 1.812 1.812 0 0 0-.644-.476 1.7 1.7 0 0 0-.77-.182h-3.094v4.536zm7.575-5.684h.952v8.568c0 .27.074.485.224.644.149.15.359.224.63.224a2.42 2.42 0 0 0 .756-.154l.168.77a3.153 3.153 0 0 1-.658.182c-.252.047-.472.07-.658.07-.439 0-.784-.121-1.036-.364-.252-.252-.378-.602-.378-1.05v-8.89zm5.606 10.36c-.345 0-.667-.056-.966-.168a2.645 2.645 0 0 1-.77-.49 2.277 2.277 0 0 1-.504-.714 2.235 2.235 0 0 1-.182-.896 1.8 1.8 0 0 1 .224-.882c.15-.27.36-.504.63-.7a2.99 2.99 0 0 1 .966-.448 4.278 4.278 0 0 1 1.232-.168c.374 0 .752.033 1.134.098.383.065.724.159 1.022.28v-.658c0-.644-.182-1.153-.546-1.526-.364-.383-.868-.574-1.512-.574-.373 0-.756.075-1.148.224a5.55 5.55 0 0 0-1.19.644l-.336-.63c.943-.635 1.858-.952 2.744-.952.915 0 1.634.257 2.156.77.523.513.784 1.223.784 2.128v3.29c0 .261.117.392.35.392V29c-.158.028-.28.042-.364.042-.242 0-.434-.06-.574-.182-.13-.121-.2-.29-.21-.504l-.028-.574a3.29 3.29 0 0 1-1.274 1.008c-.504.233-1.05.35-1.638.35zm.224-.728a3.24 3.24 0 0 0 1.358-.28c.42-.187.738-.434.952-.742a.793.793 0 0 0 .182-.266.68.68 0 0 0 .07-.28v-1.19a5.766 5.766 0 0 0-2.03-.378c-.672 0-1.218.14-1.638.42-.42.28-.63.649-.63 1.106 0 .224.042.434.126.63.094.196.215.369.364.518a1.876 1.876 0 0 0 1.246.462zm5.813 2.828c.075.01.145.014.21.014.075.01.145.014.21.014a.891.891 0 0 0 .392-.07c.103-.047.201-.15.294-.308a4.53 4.53 0 0 0 .308-.686c.122-.299.29-.7.504-1.204l-3.178-7.294h.98l2.702 6.412 2.506-6.412h.91l-3.78 9.408c-.102.27-.275.504-.518.7-.233.205-.555.308-.966.308a2.5 2.5 0 0 1-.266-.014c-.084 0-.186-.01-.308-.028v-.84z"/></symbol><symbol id="logo" viewBox="-247 363.9 95.7 115" xml:space="preserve" xmlns="http://www.w3.org/2000/svg"><style>.fst1{fill:#3e4348}</style><defs><path id="fSVGID_1_" d="M-247 363.9h100v115h-100z"/></defs><clipPath id="fSVGID_2_"><use xlink:href="#fSVGID_1_" overflow="visible"/></clipPath><g clip-path="url(#fSVGID_2_)"><path class="fst1" d="M-229.6 473.9c0 .7-.2 1.4-.5 2.2-.2.7-.7 1.2-1.2 1.4-.5.5-1.2.7-1.9 1-.7.2-1.4.2-2.4.2h-9.4v-18.9h10.1c.7 0 1.2.2 1.7.5.5.2 1 .7 1.4 1.2.5.5.7 1 1 1.4.2.5.2 1.2.2 1.7 0 1-.2 1.7-.7 2.6s-1.2 1.4-1.9 1.7c1.2.2 1.9 1 2.7 1.7.4 1.1.9 2.1.9 3.3zm-11.8-10.8v4.8h4.8c.7 0 1.2-.2 1.7-.7.5-.5.7-1 .7-1.7s-.2-1.2-.5-1.7c-.5-.5-1-.7-1.4-.7h-5.3zm7.9 10c0-.2 0-.7-.2-1 0-.2-.2-.5-.5-.7-.2-.2-.5-.5-.7-.5 0-.2-.5-.2-.7-.2h-5.8v4.8h6.6c.2-.2.5-.2.7-.5.2-.2.5-.5.5-.7.1-.4.1-.7.1-1.2zm12.8 5.8c-1.2 0-2.2-.2-3.1-.5-1-.2-1.7-1-2.4-1.4-.7-.7-1.2-1.4-1.4-2.4-.2-1-.5-1.7-.5-2.6 0-1 .2-1.9.5-2.9.2-1 .7-1.7 1.4-2.4s1.4-1.2 2.4-1.7 1.9-.5 3.1-.5c1.2 0 2.2.2 3.1.5 1 .5 1.7 1 2.4 1.7s1.2 1.4 1.4 2.4c.2 1 .5 1.7.5 2.6v1.2h-11.1c0 .5.2 1 .5 1.4.2.5.5.7.7 1.2.2.2.7.5 1.2.7.5.2 1 .2 1.4.2.7 0 1.4-.2 1.9-.5.7-.2 1-.7 1.2-1.4l3.1 1c-.5 1-1.4 1.9-2.4 2.6-.7.8-2.4.8-3.9.8zm3.6-8.4c0-1-.5-1.9-1.2-2.4-.7-.7-1.4-1-2.4-1-.5 0-1 0-1.4.2-.5.2-.7.5-1.2.7-.5.2-.5.7-.7 1.2-.2.5-.2 1-.2 1.4h7.2v-.1zm18.9 8.2h-3.6v-7.9c0-1.2-.2-1.9-.7-2.4-.5-.5-1-.7-1.7-.7-.2 0-.7 0-1 .2-.2.2-.7.2-1 .5-.2.2-.7.5-1 1-.2.2-.5.7-.5 1.2v8.1h-3.6v-19.4h3.6v8.1c.5-1 1.2-1.7 2.2-2.2 1-.5 1.9-.7 2.9-.7s1.7.2 2.2.5c.5.2 1 .7 1.4 1.2.2.5.5 1.2.7 1.7.2.7.2 1.4.2 1.9v8.9h-.1zm3.1-15.8v-3.6h3.6v3.6h-3.6zm0 15.8v-13.9h3.6v13.9h-3.6zm19.8 0h-3.6v-7.9c0-1.2-.2-1.9-.5-2.4-.5-.5-1-.7-1.7-.7-.2 0-.7 0-1.2.2s-.7.2-1 .5c-.2.2-.7.5-1 1-.2.2-.5.7-.5 1.2v8.1h-3.6v-13.9h3.1v2.6c.5-1 1.2-1.7 2.2-2.2 1-.5 2.2-.7 3.4-.7 1 0 1.7.2 2.2.5.5.2 1 .7 1.2 1.2.2.5.5 1.2.7 1.7 0 .7.2 1.4.2 1.9v8.9zm8.9.2c-1 0-1.9-.2-2.7-.5-.7-.5-1.4-1-2.2-1.4-.7-.5-1-1.4-1.4-2.4-.2-1-.5-1.9-.5-2.9s.2-1.9.5-2.9c.2-1 .7-1.7 1.2-2.4s1.2-1.2 1.9-1.4c.7-.5 1.7-.5 2.4-.5 1 0 1.9.2 2.9.7 1 .5 1.4 1.2 1.9 1.9v-7.9h3.6v15.3c0 .5 0 .7.2.7s.2.2.7.2v3.1c-.7.2-1.2.2-1.4.2-.7 0-1.2-.2-1.7-.5-.5-.2-.7-.7-.7-1.2v-1c-.5 1-1.2 1.4-2.2 1.9-.5.8-1.5 1-2.5 1zm1-2.9c.2 0 .7 0 1-.2.2 0 .7-.2 1-.5l.7-.7c.2-.2.5-.5.5-1v-3.3c-.2-.5-.2-.7-.5-1-.2-.2-.5-.7-1-1-.2-.2-.7-.5-1-.5-.2 0-.7-.2-1-.2-.5 0-1 0-1.4.2-.5.2-.7.5-1.2 1s-.5 1-.7 1.4c-.2.5-.2 1-.2 1.7 0 .5 0 1.2.2 1.7s.5 1 .7 1.2c.2.5.7.7 1.2 1 .7 0 1.2.2 1.7.2zm-10.7-57.3h17.9c.3 0 .5-.2.5-.5V399c0-.3-.2-.5-.5-.5h-17.9c-1.1 0-2.9-.2-2.9-2.1 0-1.1.5-2.1 2.5-2.1h17c.3 0 .5-.2.5-.5s-.2-.5-.5-.5h-19c-2 0-2.5-1.1-2.5-2.6s1-2 2.5-2h18.8c.3 0 .5-.2.5-.5s-.2-.5-.5-.5h-17.8c-1.3 0-2-.8-2-2 0-1.5 1.3-2.1 2-2.1h18c.3 0 .5-.2.5-.5s-.2-.5-.5-.5h-13c-1.3 0-2.5-.4-2.5-2.1s1.4-1.8 2.5-1.8h14.8v-15H-247v88.5h89.3v-14h-14.8c-1.1 0-2.5-.2-2.5-1.8 0-1.7 1.2-2.1 2.5-2.1h13c.3 0 .5-.2.5-.5s-.2-.5-.5-.5h-18c-.7 0-2-.6-2-2.1 0-1.2.7-2 2-2h17.8c.3 0 .5-.2.5-.5s-.2-.5-.5-.5h-18.8c-1.5 0-2.5-.5-2.5-2s.5-2.6 2.5-2.6h19c.3 0 .5-.2.5-.5s-.2-.5-.5-.5h-17c-2 0-2.5-.9-2.5-2.1 0-1.6 1.8-1.8 2.9-1.8z"/><path class="fst1" d="M-157.7 400.5h-.1c-.1 0-.1-.1-.1-.2v-1.2c0-.1-.1-.3-.3-.3h-17.9c-2.1 0-3.2-.8-3.2-2.3 0-1.6.9-2.3 2.7-2.3h17c.1 0 .3-.1.3-.3s-.1-.3-.3-.3h-19c-2.5 0-2.8-1.6-2.8-2.8 0-1.5.9-2.3 2.8-2.3h18.8c.1 0 .1 0 .2-.1 0 0 .1-.1.1-.2s0-.1-.1-.2-.1-.1-.2-.1h-17.8c-1.4 0-2.2-.9-2.2-2.3 0-1.6 1.5-2.3 2.2-2.3h18c.1 0 .3-.1.3-.3s-.1-.3-.3-.3h-13c-2.2 0-2.7-1.3-2.7-2.3 0-2.1 2-2.1 2.7-2.1h15.4c1.6 0 3.4 1.1 3.4 2.8 0 1-.1 1.3-.2 1.5 0 .1-.1.1-.1.2 0 0 .1.2.2.3.3.4.8 1 .8 2.4 0 1-.3 1.5-.5 1.9-.1.3-.2.4-.2.7 0 .2.1.3.3.5.3.4.7.8.7 2.1s-.5 2-.9 2.5c-.2.3-.4.5-.4.6 0 .2 0 .2.1.4s.3.5.3 1.5c-.1 1-.9 1.8-1.7 2.5l-2.1 2c-.1.3-.1.3-.2.3zm-18.8-5.8c-2 0-2.2.9-2.2 1.8 0 1.2.8 1.8 2.7 1.8h17.9c.4 0 .8.3.8.8v.6l1.7-1.6c1-.9 1.4-1.5 1.5-2.2 0-.8-.1-1.1-.2-1.2-.1-.1-.1-.3-.1-.6s.2-.6.5-.9c.4-.5.8-1.1.8-2.2s-.3-1.5-.6-1.8c-.2-.2-.4-.4-.4-.8s.1-.6.3-.9c.2-.4.4-.8.4-1.6 0-1.3-.4-1.8-.7-2.1-.2-.2-.3-.4-.3-.6 0-.2.1-.3.1-.4.1-.2.2-.4.2-1.3 0-1.4-1.5-2.3-2.9-2.3h-15.4c-1.5 0-2.2.5-2.2 1.6 0 1.2.7 1.8 2.2 1.8h13c.4 0 .8.3.8.8s-.3.8-.8.8h-18c-.6 0-1.7.5-1.7 1.8 0 1.1.6 1.8 1.7 1.8h17.8c.2 0 .4.1.5.2.1.1.2.3.2.5s-.1.4-.2.5-.3.2-.5.2h-18.8c-1.6 0-2.3.5-2.3 1.8 0 1.6.7 2.3 2.3 2.3h19c.4 0 .8.3.8.8s-.3.8-.8.8h-17.1zm19.4 43.9h-15.4c-.7 0-2.7 0-2.7-2.1 0-1.1.5-2.3 2.7-2.3h13c.1 0 .3-.1.3-.3s-.1-.3-.3-.3h-18c-.8 0-2.2-.7-2.2-2.3 0-1.4.9-2.3 2.2-2.3h17.8c.1 0 .2-.1.2-.3 0-.1 0-.1-.1-.2 0 0-.1-.1-.2-.1h-18.8c-1.8 0-2.8-.8-2.8-2.3 0-1.2.3-2.8 2.8-2.8h19c.1 0 .3-.1.3-.3s-.1-.3-.3-.3h-17c-1.8 0-2.7-.8-2.7-2.3 0-1.5 1.1-2.3 3.2-2.3h17.9c.1 0 .3-.1.3-.3v-.8c0-.1.1-.2.1-.2h.3l2.1 2c.8.7 1.5 1.5 1.7 2.5 0 1-.1 1.3-.3 1.5-.1.1-.1.2-.1.3 0 .2.2.4.4.6.4.5.9 1.2.9 2.5s-.4 1.8-.7 2.1c-.2.2-.3.3-.3.5 0 .3.1.4.2.7.2.4.5.9.5 1.9 0 1.4-.5 2.1-.8 2.4-.1.1-.2.2-.2.3 0 .1 0 .1.1.2.1.2.2.5.2 1.5 0 1.8-1.7 2.8-3.3 2.8zm-15.4-3.9c-1.5 0-2.2.6-2.2 1.8 0 1.1.7 1.6 2.2 1.6h15.4c1.4 0 2.9-.9 2.9-2.3 0-.9-.1-1.2-.2-1.3 0-.1-.1-.2-.1-.4s.1-.4.3-.6c.3-.3.7-.9.7-2.1 0-.8-.2-1.3-.4-1.6-.1-.3-.3-.5-.3-.9s.2-.6.4-.8c.3-.3.6-.7.6-1.8s-.5-1.7-.8-2.2c-.2-.3-.5-.6-.5-.9 0-.3.1-.4.1-.6.1-.2.2-.4.2-1.3-.1-.6-.5-1.2-1.5-2.1l-1.7-1.6v.6c0 .4-.3.8-.8.8h-17.9c-1.8 0-2.7.6-2.7 1.8 0 .9.3 1.8 2.2 1.8h17c.4 0 .8.3.8.8s-.3.8-.8.8h-19c-1.6 0-2.3.7-2.3 2.3 0 1.2.7 1.8 2.3 1.8h18.8c.2 0 .4.1.5.2.1.1.2.3.2.5 0 .4-.3.7-.7.8h-17.8c-1.1 0-1.7.7-1.7 1.8 0 1.3 1.1 1.8 1.7 1.8h18c.4 0 .8.3.8.8s-.3.8-.8.8h-12.9z"/></g></symbol></svg>